<svg width="165" height="248" viewBox="0 0 165 248" fill="none" xmlns="http://www.w3.org/2000/svg">
<path d="M59.9595 34.1882C45.8514 34.1882 33.8595 46.2965 33.8595 60.5416C33.8595 72.6499 41.9717 82.9776 52.9054 85.8266L53.2581 80.8409C44.7933 78.348 38.7973 70.1571 38.7973 60.5416C38.7973 48.7894 48.3203 39.174 59.9595 39.174C71.5987 39.174 81.1216 48.7894 81.1216 60.5416C81.1216 64.459 80.0635 68.0203 78.3 71.2254L81.8271 75.1428C84.6487 70.8693 86.0595 66.2397 86.0595 60.8978C86.0595 46.2965 74.4203 34.1882 59.9595 34.1882Z" fill="white"/>
<path d="M51.8473 115.741C25.3946 111.824 4.93784 88.6756 4.93784 60.5416C4.93784 29.9147 29.627 4.62965 60.3121 4.62965C90.6446 4.62965 115.686 29.5585 115.686 60.5416C115.686 74.4305 110.749 87.2511 102.284 96.8665L105.458 100.428C114.628 89.744 120.624 75.855 120.624 60.5416C120.624 27.0657 93.8189 0 60.6648 0C26.8054 0 0 27.0657 0 60.5416C0 91.1685 22.573 116.454 51.8473 120.727V115.741Z" fill="white"/>
<path d="M59.9594 17.094C36.3283 17.094 16.9297 36.681 16.9297 60.5415C16.9297 81.9091 32.4486 99.7154 52.5526 103.633L52.9054 98.6471C35.2702 95.0858 21.8675 79.4162 21.8675 60.5415C21.5148 39.1739 38.7972 21.7236 59.9594 21.7236C81.1216 21.7236 98.404 39.1739 98.404 60.5415C98.404 69.4447 95.2297 77.6356 90.2918 84.402L93.4662 87.9633C99.4621 80.4846 102.989 70.8692 102.989 60.5415C103.342 36.681 83.9432 17.094 59.9594 17.094Z" fill="white"/>
<path d="M164.359 175.571L60.6648 60.5415L54.3162 215.813L84.2959 188.747L104.047 243.591C105.458 247.152 108.985 248.933 112.512 247.508L140.376 237.18C143.903 235.756 145.666 232.195 144.255 228.633L124.151 174.502L164.359 175.571Z" fill="white"/>
<path d="M126.267 242.879L60.6648 60.5415L54.3162 215.813L84.2959 188.747L104.047 243.591C105.458 247.152 108.985 248.933 112.512 247.508L126.267 242.879Z" fill="#BABABA"/>
<path d="M164.359 175.571L60.6648 60.5415L54.3162 215.813L84.2959 188.747L104.047 243.591C105.458 247.152 108.985 248.933 112.512 247.508L140.376 237.18C143.903 235.756 145.666 232.195 144.255 228.633L124.151 174.502L164.359 175.571Z" fill="#23B0E2"/>
<path d="M126.267 242.879L60.6648 60.5415L54.3162 215.813L84.2959 188.747L104.047 243.591C105.458 247.152 108.985 248.933 112.512 247.508L126.267 242.879Z" fill="#0D78BA"/>
</svg>
