<svg width="40" height="47" viewBox="0 0 40 47" fill="none" xmlns="http://www.w3.org/2000/svg">
<path d="M32.738 7.69171C32.738 3.44368 28.2021 0 22.6067 0C20.0593 0 17.7318 0.713885 15.9517 1.89218C17.1418 1.9238 18.2995 2.11789 19.3974 2.47045C20.5791 2.84987 21.6456 3.39707 22.5672 4.09689C23.5187 4.81918 24.271 5.66977 24.8028 6.62454C25.3738 7.64931 25.6633 8.74353 25.6633 9.8765C25.6633 11.0095 25.3738 12.1037 24.8028 13.1285C24.3373 13.9641 23.703 14.7198 22.914 15.3798C24.5207 15.3434 26.0332 15.023 27.368 14.4826L31.0478 17.0791L30.1438 12.8315C31.7565 11.4691 32.738 9.66742 32.738 7.69153V7.69171Z" fill="white"/>
<path d="M24.5892 9.87669C24.5892 8.92868 24.3454 8.01046 23.8645 7.14744C23.4052 6.32317 22.7502 5.58461 21.9177 4.9526C21.0931 4.32645 20.1346 3.83554 19.0689 3.4934C17.9705 3.14066 16.8046 2.96191 15.6037 2.96191C14.4027 2.96191 13.2369 3.14084 12.1384 3.4934C11.0727 3.83554 10.1143 4.32663 9.28966 4.9526C8.45716 5.58461 7.80212 6.32317 7.34283 7.14744C6.86197 8.01046 6.61816 8.92868 6.61816 9.87669C6.61816 11.5379 7.38432 13.1292 8.78102 14.3813L7.85567 18.7295L11.6154 16.0767C12.1892 16.2953 12.7935 16.4661 13.4141 16.5855C14.1262 16.7224 14.8627 16.7916 15.6037 16.7916C16.8046 16.7916 17.9705 16.6129 19.0689 16.2602C20.1346 15.918 21.0931 15.4269 21.9177 14.801C22.7502 14.169 23.4052 13.4304 23.8645 12.6061C24.3454 11.7431 24.5892 10.8249 24.5892 9.87687V9.87669ZM15.6039 16.0182C14.2444 16.0182 12.8973 15.7636 11.708 15.282L11.5125 15.2029L9.02355 16.9591L9.63344 14.0931L9.45652 13.9436C8.12507 12.819 7.39181 11.3746 7.39181 9.87669C7.39181 6.49022 11.0756 3.7352 15.6039 3.7352C20.1321 3.7352 23.8159 6.49022 23.8159 9.87669C23.8159 13.2632 20.1321 16.0182 15.6039 16.0182Z" fill="white"/>
<path d="M14.6143 11.2862V9.61313C14.8028 9.58846 15.0012 9.55135 15.2098 9.50182C15.4183 9.45248 15.6161 9.37517 15.803 9.27008C15.99 9.16499 16.1406 9.02371 16.2548 8.84606C16.3691 8.66841 16.4263 8.4405 16.4263 8.16251C16.4263 7.9463 16.4 7.75696 16.3475 7.59484C16.2949 7.43255 16.2038 7.30607 16.0741 7.21487C15.9443 7.12385 15.765 7.07816 15.5366 7.07816C15.3081 7.07816 15.0886 7.12678 14.86 7.22419C14.6313 7.32142 14.4235 7.42962 14.2366 7.5486C14.0496 7.66758 13.9083 7.76098 13.8125 7.82897H13.5669V6.71208C13.6627 6.67206 13.797 6.61796 13.9701 6.54979C14.1432 6.4818 14.3469 6.41929 14.5818 6.36208C14.8167 6.30488 15.07 6.27637 15.3419 6.27637C15.7343 6.27637 16.105 6.3513 16.4542 6.50117C16.8033 6.65104 17.0884 6.86963 17.3092 7.15693C17.53 7.44424 17.6406 7.79954 17.6406 8.22283C17.6406 8.67079 17.5417 9.044 17.3439 9.34209C17.1462 9.64036 16.8852 9.8796 16.5608 10.0604C16.2364 10.2411 15.8811 10.3809 15.4949 10.4798L15.4532 11.2862H14.6143ZM15.0268 13.5015C14.7951 13.5015 14.5959 13.4273 14.429 13.2791C14.2621 13.1308 14.1788 12.9424 14.1788 12.7136C14.1788 12.4848 14.2621 12.2826 14.429 12.1157C14.5959 11.9489 14.7951 11.8655 15.0268 11.8655C15.2708 11.8655 15.4764 11.9489 15.6433 12.1157C15.8102 12.2826 15.8935 12.4818 15.8935 12.7136C15.8935 12.9453 15.8102 13.1306 15.6433 13.2791C15.4764 13.4273 15.271 13.5015 15.0268 13.5015Z" fill="white"/>
<path d="M7.62606 28.467C10.0704 28.467 12.0519 26.4854 12.0519 24.0411C12.0519 21.5968 10.0704 19.6152 7.62606 19.6152C5.18172 19.6152 3.2002 21.5968 3.2002 24.0411C3.2002 26.4854 5.18172 28.467 7.62606 28.467Z" fill="white"/>
<path d="M31.7301 28.467C34.1744 28.467 36.1559 26.4854 36.1559 24.0411C36.1559 21.5968 34.1744 19.6152 31.7301 19.6152C29.2857 19.6152 27.3042 21.5968 27.3042 24.0411C27.3042 26.4854 29.2857 28.467 31.7301 28.467Z" fill="white"/>
<path d="M11.9712 35.8174C12.6109 34.7104 13.3448 33.7353 14.141 32.9277C13.2741 31.0285 12.0172 29.352 10.5339 28.3574C10.2025 30.0189 9.02626 31.2475 7.62609 31.2475C6.22592 31.2475 5.04982 30.0189 4.71828 28.3574C2.39697 29.914 0.629434 33.1408 0.0453131 36.2774C-0.191186 37.5469 0.517033 38.8029 1.72694 39.2543L1.79146 39.2784C4.49 40.2853 7.38411 40.57 10.1932 40.1329C10.3369 39.593 10.5078 39.0545 10.7046 38.5223C11.0548 37.5761 11.4808 36.666 11.9712 35.8174Z" fill="white"/>
<path d="M39.311 36.2774C38.7267 33.1408 36.9593 29.914 34.638 28.3574C34.3067 30.0189 33.1304 31.2475 31.7302 31.2475C30.33 31.2475 29.1539 30.0189 28.8224 28.3574C27.3393 29.352 26.0822 31.0286 25.2153 32.9277C26.0115 33.7353 26.7455 34.7104 27.3851 35.8174C27.8755 36.666 28.3017 37.5761 28.6517 38.5223C28.8485 39.0545 29.0196 39.593 29.1631 40.1329C31.9722 40.57 34.8663 40.2853 37.5648 39.2784L37.6294 39.2543C38.8391 38.8029 39.5473 37.5469 39.311 36.2774Z" fill="white"/>
<path d="M23.019 32.4883C22.6383 34.3971 21.2869 35.8086 19.6784 35.8086C18.0699 35.8086 16.7185 34.3973 16.3378 32.4883C13.6709 34.2766 11.6403 37.9837 10.969 41.5873C10.6974 43.0458 11.5109 44.4887 12.9009 45.0074L12.9749 45.035C15.1366 45.8415 17.4073 46.2447 19.6782 46.2447C21.9491 46.2447 24.2199 45.8415 26.3815 45.035L26.4555 45.0074C27.8455 44.4889 28.6591 43.0458 28.3874 41.5873C27.7161 37.9837 25.6855 34.2766 23.0186 32.4883H23.019Z" fill="white"/>
<path d="M19.678 32.6138C22.4862 32.6138 24.7627 30.3373 24.7627 27.5291C24.7627 24.7208 22.4862 22.4443 19.678 22.4443C16.8698 22.4443 14.5933 24.7208 14.5933 27.5291C14.5933 30.3373 16.8698 32.6138 19.678 32.6138Z" fill="white"/>
</svg>
