<svg width="44" height="31" viewBox="0 0 44 31" fill="none" xmlns="http://www.w3.org/2000/svg">
<path d="M34.8329 6.9976C34.4025 6.9976 33.9806 7.03908 33.5672 7.09773C31.9135 2.93808 27.8979 0 23.2022 0C19.3234 0 15.9074 2.00545 13.9024 5.04794C13.5666 4.99788 13.2265 4.96355 12.8766 4.96355C9.21652 4.96355 6.21537 7.8015 5.89084 11.4247C2.55387 11.9726 0 14.9007 0 18.4409C0 22.3703 3.14084 25.5544 7.01822 25.5544L9.54105 25.5573V12.5276L9.81619 12.755C10.358 11.728 11.697 10.9141 13.8163 10.3262C16.0203 9.71539 18.9269 9.37924 22 9.37924C25.0731 9.37924 27.9797 9.71539 30.1837 10.3262C32.3044 10.9127 33.6434 11.7266 34.1838 12.755L34.459 12.5276V25.5844H34.8343C39.8997 25.5844 44 21.4248 44 16.2925C44 11.1601 39.8983 6.99903 34.8343 6.99903L34.8329 6.9976Z" fill="white"/>
<path d="M33.048 13.8678C33.048 15.5571 28.1011 16.926 22 16.926C15.8989 16.926 10.952 15.5571 10.952 13.8678C10.952 12.1785 15.8989 10.8096 22 10.8096C28.1011 10.8096 33.048 12.1785 33.048 13.8678ZM33.048 15.5371V18.5925C33.048 20.2818 28.1011 21.6507 22 21.6507C15.8989 21.6507 10.952 20.2818 10.952 18.5925V15.5371C11.6011 16.0735 12.6029 16.5312 13.9518 16.9046C16.1134 17.5025 18.9706 17.8329 21.9986 17.8329C25.0266 17.8329 27.8852 17.5039 30.0454 16.9046C31.3943 16.5312 32.3961 16.0735 33.0452 15.5371H33.048ZM20.1855 19.8655C20.1855 19.5051 19.8962 19.2118 19.5407 19.2118C19.1851 19.2118 18.8959 19.5051 18.8959 19.8655C18.8959 20.226 19.1851 20.5192 19.5407 20.5192C19.8962 20.5192 20.1855 20.226 20.1855 19.8655ZM22.6448 19.8655C22.6448 19.5051 22.3556 19.2118 22 19.2118C21.6444 19.2118 21.3552 19.5051 21.3552 19.8655C21.3552 20.226 21.6444 20.5192 22 20.5192C22.3556 20.5192 22.6448 20.226 22.6448 19.8655ZM25.1042 19.8655C25.1042 19.5051 24.8149 19.2118 24.4594 19.2118C24.1038 19.2118 23.8145 19.5051 23.8145 19.8655C23.8145 20.226 24.1038 20.5192 24.4594 20.5192C24.8149 20.5192 25.1042 20.226 25.1042 19.8655ZM33.0466 20.2117V23.2671C33.0466 24.9564 28.0997 26.3253 21.9986 26.3253C15.8975 26.3253 10.9506 24.9564 10.9506 23.2671V20.2117C11.5997 20.7481 12.6015 21.2058 13.9504 21.5792C16.112 22.1771 18.9692 22.5075 21.9972 22.5075C25.0252 22.5075 27.8838 22.1785 30.044 21.5792C31.3929 21.2058 32.3947 20.7481 33.0438 20.2117H33.0466ZM20.1841 24.4686C20.1841 24.1082 19.8948 23.8149 19.5393 23.8149C19.1837 23.8149 18.8944 24.1082 18.8944 24.4686C18.8944 24.8291 19.1837 25.1223 19.5393 25.1223C19.8948 25.1223 20.1841 24.8291 20.1841 24.4686ZM22.6434 24.4686C22.6434 24.1082 22.3542 23.8149 21.9986 23.8149C21.643 23.8149 21.3538 24.1082 21.3538 24.4686C21.3538 24.8291 21.643 25.1223 21.9986 25.1223C22.3542 25.1223 22.6434 24.8291 22.6434 24.4686ZM25.1028 24.4686C25.1028 24.1082 24.8135 23.8149 24.4579 23.8149C24.1024 23.8149 23.8131 24.1082 23.8131 24.4686C23.8131 24.8291 24.1024 25.1223 24.4579 25.1223C24.8135 25.1223 25.1028 24.8291 25.1028 24.4686ZM33.0452 24.8863V27.9417C33.0452 29.631 28.0983 30.9999 21.9972 30.9999C15.8961 30.9999 10.9492 29.631 10.9492 27.9417V24.8863C11.5983 25.4227 12.6001 25.8804 13.949 26.2538C16.1106 26.8517 18.9678 27.1821 21.9958 27.1821C25.0237 27.1821 27.8824 26.8531 30.0426 26.2538C31.3915 25.8804 32.3933 25.4227 33.0423 24.8863H33.0452ZM20.1827 29.0703C20.1827 28.7098 19.8934 28.4166 19.5379 28.4166C19.1823 28.4166 18.893 28.7098 18.893 29.0703C18.893 29.4307 19.1823 29.724 19.5379 29.724C19.8934 29.724 20.1827 29.4307 20.1827 29.0703ZM22.642 29.0703C22.642 28.7098 22.3528 28.4166 21.9972 28.4166C21.6416 28.4166 21.3524 28.7098 21.3524 29.0703C21.3524 29.4307 21.6416 29.724 21.9972 29.724C22.3528 29.724 22.642 29.4307 22.642 29.0703ZM25.1013 29.0703C25.1013 28.7098 24.8121 28.4166 24.4565 28.4166C24.101 28.4166 23.8117 28.7098 23.8117 29.0703C23.8117 29.4307 24.101 29.724 24.4565 29.724C24.8121 29.724 25.1013 29.4307 25.1013 29.0703Z" fill="white"/>
</svg>
