<svg width="35" height="40" viewBox="0 0 35 40" fill="none" xmlns="http://www.w3.org/2000/svg">
<mask id="mask0_704_1186" style="mask-type:luminance" maskUnits="userSpaceOnUse" x="9" y="0" width="17" height="16">
<path d="M25.3245 0H9.93018V15.3795H25.3245V0Z" fill="white"/>
</mask>
<g mask="url(#mask0_704_1186)">
<path d="M17.624 15.3783C21.863 15.3783 25.3105 11.9304 25.3105 7.69124C25.3105 3.45209 21.863 0.00390625 17.624 0.00390625C13.385 0.00390625 9.9375 3.45223 9.9375 7.69138C9.9375 11.9305 13.3846 15.3784 17.624 15.3784" fill="white"/>
</g>
<mask id="mask1_704_1186" style="mask-type:luminance" maskUnits="userSpaceOnUse" x="0" y="13" width="35" height="27">
<path d="M34.28 13.8906H0V39.0744H34.28V13.8906Z" fill="white"/>
</mask>
<g mask="url(#mask1_704_1186)">
<path d="M17.7448 35.1812V27.1833C17.7635 27.1451 17.7902 27.0938 17.82 27.037C17.8308 27.0168 17.8446 26.9918 17.8569 26.969C17.8788 26.9281 17.9034 26.884 17.9305 26.8362C17.95 26.8016 17.9718 26.7643 17.9937 26.7264C18.0196 26.6822 18.0481 26.6345 18.0777 26.5861C18.1058 26.5396 18.1345 26.4927 18.1658 26.4425C18.1957 26.3956 18.2294 26.3443 18.2621 26.2942C18.2995 26.2366 18.3353 26.1809 18.377 26.1193C18.3873 26.1042 18.3996 26.0871 18.4103 26.072C18.5164 25.9169 18.6377 25.7503 18.7701 25.5762C18.8063 25.5289 18.8413 25.4824 18.8791 25.4339C18.9418 25.3543 19.0091 25.2721 19.0771 25.1894C19.118 25.1397 19.1602 25.0896 19.2031 25.0388C19.2762 24.9528 19.3522 24.8658 19.4313 24.7776C19.4743 24.7298 19.52 24.681 19.5649 24.6325C19.6515 24.5386 19.7386 24.4448 19.832 24.3494C19.8614 24.3196 19.894 24.2889 19.9243 24.2588C20.1321 24.0501 20.3573 23.8397 20.5985 23.629C20.6338 23.598 20.6669 23.5674 20.7031 23.5364C20.8116 23.4437 20.9269 23.3516 21.0421 23.2593C21.1085 23.206 21.1749 23.153 21.2438 23.0997C21.3582 23.012 21.4771 22.9244 21.5979 22.8373C21.6759 22.7813 21.7558 22.7255 21.836 22.6704C21.9597 22.5858 22.0842 22.501 22.2138 22.4183C22.3008 22.3626 22.3927 22.3085 22.4826 22.2541C22.6157 22.173 22.7473 22.091 22.8869 22.0127C23.1842 21.8454 23.5003 21.6867 23.8278 21.5336C24.0742 21.4187 24.3279 21.3078 24.5903 21.2021C24.8634 21.0931 25.1425 20.9881 25.4343 20.8923L28.5121 30.5371C28.4321 30.5526 28.3448 30.5697 28.2536 30.5879C28.2294 30.5927 28.2044 30.5978 28.1793 30.6026C28.099 30.6189 28.0144 30.6364 27.926 30.6551C27.9081 30.6586 27.8914 30.6623 27.8732 30.6662C27.7624 30.6897 27.6466 30.7147 27.525 30.7414C27.5151 30.7438 27.5048 30.7458 27.4947 30.7482C27.3834 30.7732 27.2676 30.7995 27.1484 30.8269C27.1262 30.8321 27.1043 30.8372 27.0819 30.8425C26.8151 30.9049 26.5309 30.974 26.2319 31.0512C26.2152 31.0556 26.1977 31.0599 26.1806 31.0643C26.0427 31.1001 25.9019 31.1375 25.7583 31.1765C25.7417 31.1812 25.7253 31.1852 25.709 31.19C25.5485 31.2336 25.385 31.2794 25.2188 31.3272L25.2184 31.3276C22.6403 32.0711 19.4595 33.3076 17.7446 35.1815L17.7448 35.1812ZM34.2713 37.6603C34.2693 37.6407 34.2724 37.6217 34.2684 37.6022L32.0258 26.6867C31.9897 26.5058 31.8712 26.3519 31.7066 26.2697C31.643 26.2379 31.3468 26.0927 30.8789 25.8943C30.9719 26.5889 31.012 27.1908 31.012 27.7193L32.8363 36.6019C31.7569 36.1344 29.8122 35.4565 26.4227 34.6927C25.4432 34.4717 24.5355 34.3778 23.7034 34.3778C21.8445 34.3778 20.3561 34.8462 19.2346 35.4103C21.8305 33.2498 27.0559 31.9727 29.3859 31.6013C29.5593 31.5739 29.7123 31.4729 29.8033 31.3231C29.896 31.1744 29.9175 30.9923 29.8642 30.8254L29.574 29.9168C30.0197 28.9217 30.3098 27.0776 29.1199 22.6115C28.1825 19.0984 25.2 16.0492 23.2581 14.3666C21.7356 15.6545 19.7688 16.4329 17.6233 16.4329C15.2332 16.4329 13.0651 15.4679 11.4855 13.9082C9.61194 15.45 6.11203 18.7501 5.08196 22.6115C3.55331 28.3499 4.46779 29.7601 5.01554 30.6026C5.35061 31.1179 6.28684 31.5963 7.19411 31.714C7.64379 31.7725 8.48294 31.7927 9.05542 31.2735C9.4367 30.9284 9.36873 29.9988 9.28365 28.8227C9.14332 26.8833 8.95127 24.2282 10.4887 21.3019C10.6231 21.043 10.9467 20.9448 11.2011 21.08C11.4583 21.2161 11.5576 21.5345 11.4221 21.7917C10.9877 22.6191 10.7081 23.4282 10.5297 24.2058C10.5396 24.2054 10.5499 24.2054 10.5599 24.205C10.5492 24.2054 10.5384 24.2054 10.5277 24.2058C10.431 24.627 10.3666 25.0381 10.3229 25.438C12.5353 25.3187 14.8382 25.7423 16.5425 27.4105V36.3444C15.1018 35.2311 12.2092 33.7148 7.86326 34.6928C4.48686 35.4547 2.5433 36.1293 1.46122 36.5968L3.21316 28.3913C3.16468 27.7336 3.18687 26.9433 3.31293 25.9708C2.95157 26.1293 2.72094 26.2431 2.66611 26.2705C2.50275 26.3528 2.38743 26.504 2.34843 26.6816L0.0179337 37.5974C0.0131288 37.6196 0.0168031 37.6415 0.0148247 37.6638C0.0117157 37.6928 0.00888928 37.721 0.0100198 37.7504C0.0115743 37.7795 0.0172271 37.8068 0.0227385 37.8351C0.0295219 37.8697 0.0365878 37.903 0.0494478 37.9361C0.0566551 37.9543 0.0669714 37.971 0.0761571 37.989C0.0904303 38.0176 0.10004 38.0479 0.119542 38.0749C0.127032 38.0856 0.138196 38.092 0.146534 38.1019C0.151339 38.1075 0.157274 38.1119 0.162503 38.1174C0.321063 38.2952 0.565121 38.3704 0.794199 38.2935C0.898351 38.2606 11.3315 34.8949 14.6733 38.8664C14.7877 39.0025 14.9552 39.0811 15.1328 39.0811H19.1541C19.3317 39.0811 19.4992 39.0024 19.6132 38.8664C22.951 34.8976 33.3901 38.2589 33.4927 38.2935C33.5118 38.2999 33.5313 38.2986 33.5507 38.3031C33.5877 38.311 33.6243 38.3194 33.662 38.3205C33.691 38.3218 33.718 38.317 33.7467 38.3139C33.7789 38.3102 33.8103 38.3075 33.8416 38.2987C33.8734 38.2901 33.9021 38.2757 33.9315 38.2618C33.9517 38.2522 33.9732 38.2483 33.9927 38.2368C33.9995 38.2325 34.0039 38.2261 34.0102 38.2217C34.0353 38.205 34.0564 38.1844 34.0782 38.1645C34.1041 38.1413 34.1291 38.1191 34.1501 38.092C34.1552 38.0856 34.1626 38.0817 34.1672 38.0749C34.1784 38.0593 34.1826 38.0411 34.1923 38.0249C34.2105 37.9942 34.2276 37.9639 34.24 37.9306C34.2499 37.9036 34.2556 37.8769 34.2615 37.8488C34.2687 37.8174 34.2746 37.7859 34.2762 37.7532C34.2778 37.7219 34.2746 37.6916 34.2715 37.6603" fill="white"/>
</g>
</svg>
