<svg width="11" height="11" viewBox="0 0 11 11" fill="none" xmlns="http://www.w3.org/2000/svg">
<path d="M7.87763 10.9997H1.9065C0.853019 10.9997 0 10.1414 0 9.09098V3.13424C0 2.08381 0.853019 1.22552 1.9065 1.22552H4.25657C4.61057 1.22552 4.89633 1.51162 4.89633 1.86603C4.89633 2.22045 4.61057 2.50654 4.25657 2.50654H1.9065C1.56103 2.50654 1.27953 2.78837 1.27953 3.13424V9.09098C1.27953 9.43686 1.56103 9.71868 1.9065 9.71868H7.87763C8.22311 9.71868 8.5046 9.43686 8.5046 9.09098V6.66132C8.5046 6.3069 8.79036 6.02081 9.14437 6.02081C9.49837 6.02081 9.78413 6.3069 9.78413 6.66132V9.09098C9.77987 10.1414 8.92685 10.9997 7.87763 10.9997Z" fill="#1B8DBE"/>
<path d="M11.0004 0.640509V4.23163C11.0004 4.58605 10.7146 4.87214 10.3606 4.87214C10.0066 4.87214 9.72087 4.58605 9.72087 4.23163V2.24178L4.7435 7.22495C4.61982 7.34878 4.45348 7.41283 4.2914 7.41283C4.12933 7.41283 3.96299 7.34878 3.8393 7.22495C3.58766 6.97301 3.58766 6.56736 3.8393 6.31969L8.86785 1.28102H6.76516C6.41116 1.28102 6.1254 0.994925 6.1254 0.640509C6.1254 0.286094 6.41116 0 6.76516 0H10.3606C10.7146 0 11.0004 0.286094 11.0004 0.640509Z" fill="#1B8DBE"/>
</svg>
