<svg width="473" height="572" viewBox="0 0 473 572" fill="none" xmlns="http://www.w3.org/2000/svg">
<path d="M353.225 323.158C372.693 297.486 382.983 266.845 382.983 234.545C382.983 194.942 367.451 157.818 339.247 130.009C311.049 102.208 273.675 87.1936 234.067 87.7658C195.684 88.3091 159.522 103.711 132.242 131.134C104.963 158.555 89.7486 194.799 89.3998 233.186C89.1012 266.094 99.4514 297.287 119.331 323.392C151.604 365.771 169.378 417.683 169.378 469.564V526.332C169.378 551.513 189.863 571.999 215.044 571.999H257.521C282.702 571.999 303.188 551.512 303.188 526.332V469.568C303.189 417.113 320.366 366.484 353.225 323.158ZM134.305 311.991C116.98 289.24 107.96 262.049 108.219 233.358C108.845 164.43 165.419 107.56 234.333 106.585C268.904 106.121 301.451 119.176 326.033 143.414C350.621 167.656 364.162 200.021 364.162 234.546C364.162 262.704 355.195 289.413 338.228 311.786C303.607 357.439 284.966 410.699 284.203 466.028H188.172C187.385 411.236 168.326 356.666 134.305 311.991ZM188.198 519.954V512.336L284.369 523.353V526.332C284.369 527.9 284.205 529.429 283.947 530.923L188.198 519.954ZM188.198 493.392V484.849H284.369V504.41L188.198 493.392ZM215.044 553.179C204.935 553.179 196.121 547.558 191.542 539.281L272.555 548.562C268.263 551.474 263.089 553.178 257.523 553.178H215.044V553.179Z" fill="white" fill-opacity="0.05"/>
<path d="M143.132 248.7C142.398 243.775 142.048 238.716 142.095 233.665C142.142 228.468 137.968 224.217 132.771 224.169C127.609 224.124 123.323 228.296 123.275 233.493C123.22 239.528 123.638 245.578 124.518 251.477C125.214 256.147 129.229 259.501 133.814 259.501C134.275 259.501 134.743 259.467 135.214 259.397C140.353 258.629 143.899 253.841 143.132 248.7Z" fill="white" fill-opacity="0.05"/>
<path d="M198.512 391.64C199.486 391.64 200.477 391.487 201.453 391.167C206.39 389.543 209.077 384.225 207.453 379.289C197.024 347.573 181.481 318.025 161.255 291.466C157.912 287.076 154.95 282.4 152.451 277.565C150.065 272.948 144.387 271.141 139.77 273.528C135.154 275.914 133.346 281.592 135.732 286.209C138.731 292.008 142.28 297.613 146.282 302.869C165.236 327.758 179.802 355.447 189.575 385.167C190.877 389.128 194.557 391.64 198.512 391.64Z" fill="white" fill-opacity="0.05"/>
<path d="M335.066 266.768C330.293 264.712 324.756 266.915 322.701 271.688C319.72 278.612 315.861 285.215 311.234 291.316C308.093 295.456 308.905 301.359 313.046 304.5C314.746 305.79 316.743 306.412 318.725 306.412C321.569 306.412 324.38 305.129 326.23 302.687C331.775 295.376 336.402 287.451 339.986 279.134C342.042 274.361 339.84 268.824 335.066 266.768Z" fill="white" fill-opacity="0.05"/>
<path d="M236.189 140.451C288.074 140.451 330.285 182.663 330.285 234.548C330.285 237.498 330.149 240.47 329.882 243.382C329.408 248.558 333.217 253.138 338.393 253.613C338.685 253.64 338.975 253.653 339.263 253.653C344.073 253.653 348.176 249.986 348.624 245.102C348.942 241.621 349.105 238.07 349.105 234.548C349.105 172.285 298.451 121.63 236.189 121.63C230.992 121.63 226.778 125.843 226.778 131.04C226.778 136.237 230.992 140.451 236.189 140.451Z" fill="white" fill-opacity="0.05"/>
<path d="M236.189 71.5187C241.386 71.5187 245.599 67.3053 245.599 62.1083V9.41035C245.599 4.21333 241.386 0 236.189 0C230.992 0 226.778 4.21333 226.778 9.41035V62.1083C226.778 67.3053 230.992 71.5187 236.189 71.5187Z" fill="white" fill-opacity="0.05"/>
<path d="M140.986 90.1132C142.73 93.1333 145.892 94.8208 149.144 94.8208C150.74 94.8208 152.359 94.4143 153.841 93.5586C158.341 90.9601 159.885 85.2047 157.286 80.7041L130.95 35.0827C128.35 30.5808 122.596 29.0387 118.095 31.6372C113.594 34.2358 112.051 39.9911 114.65 44.4918L140.986 90.1132Z" fill="white" fill-opacity="0.05"/>
<path d="M437.293 341.426L391.671 315.09C387.17 312.49 381.414 314.033 378.817 318.535C376.218 323.036 377.76 328.791 382.262 331.39L427.884 357.726C429.366 358.582 430.983 358.989 432.58 358.989C435.832 358.989 438.996 357.3 440.738 354.281C443.337 349.78 441.794 344.025 437.293 341.426Z" fill="white" fill-opacity="0.05"/>
<path d="M35.0827 130.949L80.7041 157.286C82.1859 158.142 83.8032 158.548 85.4005 158.548C88.6527 158.548 91.8158 156.859 93.5586 153.84C96.1571 149.34 94.6151 143.584 90.1132 140.986L44.4918 114.65C39.9911 112.05 34.2358 113.593 31.6372 118.095C29.0387 122.596 30.5808 128.35 35.0827 130.949Z" fill="white" fill-opacity="0.05"/>
<path d="M462.964 226.777H410.266C405.069 226.777 400.855 230.991 400.855 236.188C400.855 241.385 405.069 245.598 410.266 245.598H462.964C468.161 245.598 472.374 241.385 472.374 236.188C472.374 230.991 468.162 226.777 462.964 226.777Z" fill="white" fill-opacity="0.05"/>
<path d="M71.5187 236.188C71.5187 230.991 67.3053 226.777 62.1083 226.777H9.41035C4.21333 226.777 0 230.991 0 236.188C0 241.385 4.21333 245.598 9.41035 245.598H62.1083C67.3066 245.598 71.5187 241.385 71.5187 236.188Z" fill="white" fill-opacity="0.05"/>
<path d="M386.975 158.548C388.571 158.548 390.189 158.142 391.671 157.286L437.293 130.95C441.793 128.351 443.337 122.596 440.738 118.095C438.14 113.594 432.383 112.051 427.883 114.65L382.262 140.986C377.761 143.585 376.218 149.34 378.817 153.841C380.559 156.859 383.724 158.548 386.975 158.548Z" fill="white" fill-opacity="0.05"/>
<path d="M80.7048 315.09L35.0834 341.427C30.5827 344.025 29.0394 349.781 31.6379 354.281C33.3807 357.3 36.5439 358.989 39.7961 358.989C41.3921 358.989 43.0107 358.582 44.4925 357.727L90.1139 331.39C94.6145 328.792 96.1578 323.036 93.5593 318.536C90.962 314.034 85.2029 312.492 80.7048 315.09Z" fill="white" fill-opacity="0.05"/>
<path d="M318.536 93.5586C320.017 94.4143 321.635 94.8208 323.232 94.8208C326.484 94.8208 329.647 93.132 331.39 90.1132L357.726 44.4918C360.325 39.9911 358.782 34.2358 354.281 31.6372C349.782 29.0387 344.025 30.5808 341.427 35.0827L315.09 80.7041C312.492 85.2047 314.035 90.9601 318.536 93.5586Z" fill="white" fill-opacity="0.05"/>
</svg>
