<svg width="408" height="421" viewBox="0 0 408 421" fill="none" xmlns="http://www.w3.org/2000/svg">
<mask id="mask0_908_182" style="mask-type:alpha" maskUnits="userSpaceOnUse" x="0" y="0" width="408" height="421">
<rect width="408" height="421" fill="#D9D9D9"/>
</mask>
<g mask="url(#mask0_908_182)">
<path d="M216.466 -92H69.8873L196.17 193.929L-75 518H67.0685L248.319 299.598L346.695 518H490.455L351.206 208.338L608 -92H465.086L301.876 110.862L216.466 -92Z" fill="#D13328"/>
</g>
<path d="M342.76 334.547C342.76 334.547 305.862 346.594 287.551 341.93C287.551 341.93 287.543 341.93 287.535 341.93C286.794 341.74 286.077 341.528 285.408 341.276C285.376 341.268 285.352 341.26 285.352 341.26C285.352 341.26 271.926 347.8 251.85 343.009C251.85 343.009 246.516 339.062 245.247 333.026H179.393C179.393 333.026 151.47 352.086 140.612 318.457C140.612 318.457 132.008 300.454 141.542 282.852L145.647 257.827C145.647 257.827 139.084 240.556 148.617 236.64C148.617 236.64 153.975 190.279 161.374 191.028C161.673 189.192 166.527 184.748 198.437 181.636L200.305 179.721C203.37 176.577 207.924 175.435 212.131 176.703C219.065 178.791 231.419 180.682 248.068 175.908C251.89 174.812 255.419 172.89 258.311 170.975C260.557 169.486 263.535 169.715 265.544 171.503L268.199 173.859C280.94 177.633 307.737 171.929 309.274 175.695C309.274 175.695 316.79 172.409 331.611 210.986L340.625 234.647C341.507 236.955 343.272 238.791 345.486 239.894C348.149 241.218 350.899 244.748 346.621 254.156C346.621 254.156 353.878 278.486 358.684 287.043C363.49 295.6 359.338 301.305 359.338 301.305C359.338 301.305 359.338 301.305 359.338 301.32C359.692 302.203 371.724 332.459 342.76 334.555V334.547Z" fill="#F0CC00"/>
<path d="M258.555 311.296C256.089 310.925 252.685 311.099 252.685 311.099C244.586 311.69 243.837 318.088 243.837 318.088L227.787 324.202L223.619 325.794C225.014 317.449 224.864 304.37 223.848 289.384C223.8 288.667 223.753 287.95 223.698 287.225C223.091 278.905 222.232 270.056 221.232 261.137V261.121C219.75 247.924 217.962 234.576 216.221 222.584C215.054 214.547 213.912 207.125 212.903 200.759C211.745 193.455 210.752 187.553 210.098 183.732C209.657 181.156 211.564 178.768 214.172 178.626L255.356 176.373C258.366 175.995 261.069 178.256 261.218 181.282C263.432 224.341 258.555 311.296 258.555 311.296Z" fill="#2D494E"/>
<path d="M184.869 117.129C184.869 117.129 182.978 127.435 185.248 132.493C187.509 137.552 190.077 135.637 190.077 135.637C190.077 135.637 183.585 126.166 185.61 116.893L184.869 117.129Z" fill="#00262B"/>
<path d="M257.972 139.546L277.19 120.478C277.19 120.478 280.357 131.793 273.904 140.271C269.886 145.55 272.675 150.537 272.675 150.537C272.675 150.537 266.655 150.261 268.073 144.32C268.073 144.32 268.073 144.32 268.065 144.336C267.868 144.675 265.883 146.542 266.048 152.302C266.048 152.302 263.85 152.302 263.109 150.561C262.597 149.339 263.133 148.165 263.133 148.165C261.644 149.355 259.532 150.064 258.059 149.324L260.297 146.282C259.745 146.984 258.027 148.835 254.828 149.67C250.259 150.86 247.588 148.875 247.588 148.875L257.98 139.546H257.972Z" fill="#00262B"/>
<path d="M212.99 151.75V178.311C212.99 190.807 223.123 200.94 235.619 200.94C248.115 200.94 258.248 190.807 258.248 178.311V151.75H212.99Z" fill="#FFC89F"/>
<path d="M228.559 177.878H228.567C245.212 177.878 258.705 164.385 258.705 147.74V110.913C258.705 94.2682 245.212 80.775 228.567 80.775H228.559C211.915 80.775 198.422 94.2682 198.422 110.913V147.74C198.422 164.385 211.915 177.878 228.559 177.878Z" fill="#FFC89F"/>
<path d="M212.99 173.56V179.658C212.99 179.658 221.964 179.24 228.725 175.545C228.725 175.545 222.351 177.877 212.99 173.56Z" fill="#FF9A6C"/>
<path d="M211.703 127.75C213.18 127.51 214.184 126.118 213.944 124.64C213.704 123.163 212.312 122.159 210.834 122.399C209.357 122.639 208.353 124.031 208.593 125.509C208.833 126.987 210.225 127.99 211.703 127.75Z" fill="#1B1B2F"/>
<path d="M204.591 122.471C205.308 121.754 206.198 121.203 207.152 120.825C208.105 120.446 209.137 120.234 210.169 120.265C210.429 120.25 210.681 120.305 210.941 120.32L211.328 120.36C211.454 120.376 211.58 120.415 211.706 120.439C211.958 120.502 212.21 120.557 212.454 120.62C212.698 120.707 212.935 120.801 213.171 120.896L213.526 121.037L213.865 121.219L214.542 121.581C214.968 121.857 215.377 122.164 215.779 122.464C215.33 122.227 214.905 121.959 214.456 121.739L213.77 121.431L213.431 121.274L213.077 121.164C212.84 121.093 212.604 121.014 212.368 120.935L211.643 120.785C211.524 120.762 211.398 120.73 211.28 120.714L210.91 120.683C210.666 120.667 210.421 120.62 210.169 120.636C209.177 120.596 208.192 120.785 207.246 121.093C207.01 121.164 206.781 121.266 206.545 121.353C206.316 121.455 206.088 121.565 205.867 121.676C205.418 121.904 204.993 122.172 204.591 122.471Z" fill="#1B1B2F"/>
<path d="M240.173 127.75C241.65 127.51 242.654 126.117 242.414 124.64C242.174 123.162 240.782 122.159 239.304 122.399C237.827 122.639 236.823 124.031 237.063 125.508C237.303 126.986 238.695 127.989 240.173 127.75Z" fill="#1B1B2F"/>
<path d="M233.066 122.471C233.783 121.754 234.674 121.203 235.627 120.825C236.58 120.446 237.612 120.234 238.645 120.265C238.905 120.25 239.157 120.305 239.417 120.32L239.803 120.36C239.929 120.376 240.055 120.415 240.181 120.439C240.433 120.502 240.685 120.557 240.93 120.62C241.174 120.707 241.41 120.801 241.647 120.896L242.001 121.037L242.34 121.219L243.018 121.581C243.443 121.857 243.853 122.164 244.255 122.464C243.806 122.227 243.38 121.959 242.931 121.739L242.245 121.431L241.907 121.274L241.552 121.164C241.316 121.093 241.079 121.014 240.843 120.935L240.118 120.785C240 120.762 239.874 120.73 239.756 120.714L239.385 120.683C239.141 120.667 238.897 120.62 238.645 120.636C237.652 120.596 236.667 120.785 235.721 121.093C235.485 121.164 235.257 121.266 235.02 121.353C234.792 121.455 234.563 121.565 234.343 121.676C233.894 121.904 233.468 122.172 233.066 122.471Z" fill="#1B1B2F"/>
<path d="M221.192 133.826C221.106 135 220.972 136.166 220.838 137.332C220.704 138.498 220.546 139.664 220.389 140.822C220.302 141.413 220.207 141.965 220.255 142.54C220.278 143.107 220.412 143.667 220.633 144.195C220.853 144.715 221.192 145.195 221.673 145.503C222.161 145.826 222.658 146.141 223.146 146.472C222.618 146.212 222.106 145.928 221.586 145.66C221.05 145.353 220.656 144.857 220.389 144.313C220.113 143.769 219.971 143.17 219.924 142.572C219.861 141.965 219.963 141.358 220.042 140.783C220.207 139.625 220.381 138.459 220.578 137.3C220.767 136.142 220.972 134.984 221.208 133.834L221.192 133.826Z" fill="#1B1B2F"/>
<path d="M231.081 150.576C230.955 151.183 230.726 151.774 230.403 152.326C229.765 153.429 228.67 154.382 227.307 154.831C225.951 155.28 224.431 155.162 223.272 154.587C222.098 154.02 221.184 153.145 220.688 151.94C221.184 151.908 221.649 151.892 222.083 151.884C222.768 151.869 223.375 151.861 223.926 151.814C224.147 151.814 224.36 151.758 224.565 151.75C224.762 151.711 224.959 151.695 225.14 151.656C225.51 151.585 225.849 151.506 226.18 151.388C226.842 151.167 227.527 150.852 228.331 150.395C228.788 150.135 229.268 149.836 229.796 149.497C230.19 149.245 230.616 148.977 231.089 148.693C231.246 149.339 231.207 149.97 231.089 150.576H231.081Z" fill="#E43F5A"/>
<path d="M229.796 149.497C229.702 149.765 229.584 150.017 229.442 150.269C228.867 151.294 227.858 152.192 226.589 152.609C225.329 153.035 223.911 152.909 222.847 152.365C222.579 152.223 222.319 152.066 222.075 151.892C222.76 151.877 223.367 151.869 223.918 151.821C224.139 151.821 224.352 151.766 224.557 151.758C224.754 151.719 224.951 151.703 225.132 151.664C225.502 151.593 225.841 151.514 226.172 151.396C226.834 151.175 227.519 150.86 228.323 150.403C228.78 150.143 229.261 149.844 229.788 149.505L229.796 149.497Z" fill="white"/>
<path d="M204.591 114.907C204.717 114.277 205.024 113.741 205.387 113.269C205.576 113.032 205.781 112.819 206.001 112.615C206.112 112.512 206.23 112.425 206.348 112.331C206.466 112.244 206.584 112.134 206.71 112.063C207.719 111.409 208.956 111.047 210.201 111.078C210.508 111.062 210.815 111.125 211.123 111.165L211.58 111.244C211.729 111.275 211.871 111.33 212.021 111.378C212.312 111.472 212.596 111.575 212.872 111.693C213.14 111.835 213.392 111.984 213.644 112.15C213.77 112.229 213.888 112.315 214.006 112.402C214.117 112.496 214.227 112.591 214.337 112.701C214.55 112.906 214.755 113.119 214.944 113.339C215.133 113.568 215.283 113.828 215.433 114.088C215.582 114.348 215.7 114.632 215.803 114.923C215.149 114.978 214.613 114.923 214.093 114.9C213.833 114.9 213.581 114.884 213.345 114.868C213.226 114.868 213.108 114.844 212.998 114.829C212.88 114.829 212.762 114.829 212.651 114.829C212.423 114.829 212.21 114.805 211.997 114.781C211.784 114.781 211.572 114.781 211.367 114.766C211.264 114.766 211.162 114.742 211.06 114.742C210.957 114.742 210.863 114.742 210.76 114.742L210.461 114.726C210.366 114.71 210.264 114.71 210.169 114.726C209.381 114.695 208.601 114.726 207.711 114.758C206.813 114.781 205.859 114.86 204.614 114.939L204.591 114.907Z" fill="#1B1B2F"/>
<path d="M233.066 114.907C233.192 114.277 233.5 113.741 233.862 113.269C234.051 113.032 234.256 112.819 234.477 112.615C234.587 112.512 234.705 112.425 234.823 112.331C234.941 112.244 235.06 112.134 235.186 112.063C236.194 111.409 237.431 111.047 238.676 111.078C238.983 111.062 239.291 111.125 239.598 111.165L240.055 111.244C240.205 111.275 240.347 111.33 240.496 111.378C240.788 111.472 241.071 111.575 241.347 111.693C241.615 111.835 241.867 111.984 242.119 112.15C242.245 112.229 242.364 112.315 242.482 112.402C242.592 112.496 242.702 112.591 242.813 112.701C243.025 112.906 243.23 113.119 243.419 113.339C243.609 113.568 243.758 113.828 243.908 114.088C244.058 114.348 244.176 114.632 244.278 114.923C243.624 114.978 243.089 114.923 242.568 114.9C242.308 114.9 242.056 114.884 241.82 114.868C241.702 114.868 241.584 114.844 241.473 114.829C241.355 114.829 241.237 114.829 241.127 114.829C240.898 114.829 240.685 114.805 240.473 114.781C240.26 114.781 240.047 114.781 239.842 114.766C239.74 114.766 239.637 114.742 239.535 114.742C239.433 114.742 239.338 114.742 239.236 114.742L238.936 114.726C238.842 114.71 238.739 114.71 238.645 114.726C237.857 114.695 237.077 114.726 236.186 114.758C235.288 114.781 234.335 114.86 233.09 114.939L233.066 114.907Z" fill="#1B1B2F"/>
<path d="M244.176 93.9721C242.364 89.8356 237.746 87.6609 233.436 89.0161C230.198 90.0325 226.282 92.743 222.232 98.9281C220.806 101.103 219.616 103.451 218.6 105.878C216.78 110.227 211.272 120.785 199.564 124.591L198.437 142.248L198.004 142.051C191.267 136.851 186.587 129.066 185.035 120.265C184.917 119.595 184.806 118.91 184.704 118.216C184.704 118.216 185.019 120.509 183.144 122.124C181.442 123.59 178.85 122.952 178.85 122.952C178.85 122.952 183.695 116.782 181.434 105.759C179.385 95.8001 183.672 89.4022 192.693 84.4856C192.693 84.4856 186.106 85.3287 184.948 79.2223C184.948 79.2223 199.398 85.5887 209.295 73.8802C221.444 59.5008 237.037 61.7306 240.559 74.676C240.559 74.676 243.876 67.2933 249.486 71.6268C255.096 75.9682 260.691 83.0358 269.815 86.9281C278.947 90.8205 272.234 115.293 286.069 120.746C286.069 120.746 278.639 124.031 276.173 115.805C276.173 115.805 283.887 133.998 258.571 146.235L260.423 128.672C260.423 128.672 249.943 126.639 248.06 114.135C246.61 104.522 246.287 98.7863 244.176 93.9721Z" fill="black"/>
<path d="M240.465 74.6526C240.583 73.9987 240.788 73.3604 241.04 72.7459C241.292 72.1234 241.615 71.5246 242.001 70.9573C242.379 70.3821 242.86 69.87 243.404 69.3972C243.955 68.9324 244.601 68.5699 245.318 68.3335C246.027 68.0893 246.8 68.0262 247.532 68.0972C248.273 68.1602 248.982 68.3572 249.636 68.6329C250.952 69.1924 252.031 70.0748 252.985 71.0203C253.93 71.9816 254.75 73.0216 255.545 74.0617C256.333 75.1096 257.129 76.1418 257.901 77.1976C258.689 78.2377 259.414 79.3329 260.312 80.1838C260.754 80.625 261.25 80.9796 261.754 81.3184C262.022 81.476 262.282 81.6336 262.55 81.7833C262.826 81.9251 263.094 82.0748 263.377 82.2009C265.631 83.2646 268.105 83.9816 270.571 84.6671C271.162 84.8325 271.863 85.0295 272.517 85.2974C273.179 85.5653 273.825 85.9198 274.416 86.369C275.015 86.8181 275.551 87.3696 275.96 88.0078C276.378 88.6382 276.67 89.3473 276.851 90.0485C277.205 91.4589 277.205 92.8535 277.111 94.1772C277.008 95.5088 276.835 96.801 276.662 98.0774C276.331 100.63 276.039 103.183 276.543 105.728L276.37 105.783C275.882 104.562 275.629 103.246 275.511 101.93C275.401 100.614 275.401 99.2908 275.456 97.9829C275.496 96.6749 275.582 95.3827 275.582 94.1221C275.574 92.8614 275.503 91.6244 275.157 90.5292C274.975 89.9855 274.747 89.4812 274.432 89.0479C274.117 88.6066 273.731 88.2284 273.289 87.9054C272.84 87.5823 272.328 87.3223 271.792 87.0938C271.249 86.8732 270.689 86.7235 270.043 86.5187C269.413 86.3296 268.79 86.1247 268.168 85.9041L267.238 85.581L266.316 85.2186C265.087 84.7301 263.858 84.2022 262.7 83.5009C261.534 82.8155 260.454 81.9015 259.619 80.822C258.784 79.7426 258.185 78.5843 257.452 77.5285C256.018 75.3854 254.222 73.4629 252.173 71.9816C251.157 71.2409 250.109 70.587 249.022 70.1379C248.478 69.9172 247.934 69.736 247.383 69.673C246.831 69.6021 246.28 69.6336 245.744 69.7597C244.672 70.0118 243.672 70.713 242.828 71.6034C241.985 72.5016 241.261 73.5653 240.646 74.7078L240.473 74.6526H240.465Z" fill="#00262B"/>
<path d="M241.686 90.521C240.307 89.804 238.763 89.7016 237.289 89.8907C235.808 90.0798 234.382 90.5919 232.987 91.1986C231.601 91.8053 230.206 92.5145 228.969 93.4521C227.732 94.3897 226.645 95.5085 225.66 96.7062L224.935 97.6123L224.234 98.5341C223.761 99.1408 223.312 99.7712 222.855 100.394C222.421 101.032 221.965 101.654 221.547 102.308L220.901 103.27L220.27 104.247C218.569 106.831 216.977 109.486 215.299 112.141L215.204 112.094C216.252 109.132 217.647 106.311 219.293 103.624C220.121 102.285 221.051 101.016 222.028 99.779C223.012 98.5499 224.068 97.368 225.219 96.2965C226.369 95.2249 227.543 94.1848 228.748 93.1763C229.954 92.1756 231.175 91.1514 232.586 90.3792C233.295 90.001 234.035 89.678 234.815 89.4652C235.202 89.347 235.603 89.2682 235.997 89.1816C236.399 89.1185 236.801 89.0634 237.211 89.0476C238.022 89.0082 238.85 89.0713 239.63 89.2919C240.41 89.5046 241.166 89.8828 241.749 90.4265L241.686 90.5131V90.521Z" fill="#1B1B2F"/>
<path d="M261.085 128.727C259.036 128.94 256.94 128.767 254.923 128.207C253.914 127.924 252.93 127.538 252 127.033C251.07 126.537 250.196 125.922 249.431 125.19C247.887 123.724 246.847 121.841 246.138 119.911C245.421 117.972 245.003 115.947 244.783 113.891C244.562 111.834 244.601 109.746 244.846 107.698C245.09 105.681 245.216 103.679 245.184 101.67C245.177 99.669 244.964 97.6755 244.467 95.7451C244.207 94.7839 243.876 93.8463 243.427 92.9559C242.978 92.0734 242.427 91.2067 241.686 90.5291L241.741 90.4346C242.198 90.7025 242.584 91.057 242.939 91.4352C243.293 91.8134 243.624 92.231 243.908 92.6644C244.199 93.0977 244.459 93.5626 244.68 94.0354C244.916 94.5081 245.106 94.9966 245.287 95.4851C245.98 97.4707 246.28 99.5665 246.343 101.639C246.39 103.719 246.177 105.799 245.838 107.824C245.539 109.817 245.326 111.827 245.334 113.851C245.35 115.869 245.665 117.909 246.461 119.777C246.855 120.706 247.367 121.581 247.974 122.377C248.58 123.173 249.282 123.882 250.03 124.512C250.779 125.15 251.598 125.702 252.449 126.198C253.308 126.679 254.222 127.081 255.159 127.412C257.043 128.073 259.036 128.428 261.069 128.625V128.735L261.085 128.727Z" fill="#1B1B2F"/>
<path d="M181.844 107.225C181.536 106.681 181.292 106.114 181.064 105.539C180.843 104.964 180.685 104.365 180.528 103.774C180.378 103.175 180.291 102.561 180.197 101.954C180.118 101.339 180.102 100.717 180.126 100.102C180.228 98.8574 180.536 97.6361 180.772 96.4385C180.985 95.233 181.166 94.0354 181.442 92.8062C181.513 92.4989 181.576 92.1916 181.678 91.8922C181.773 91.5928 181.852 91.2776 181.986 90.994C182.112 90.7025 182.246 90.4109 182.387 90.1273C182.545 89.8515 182.71 89.5679 182.876 89.3C183.569 88.2205 184.444 87.2199 185.492 86.4556C186.54 85.6992 187.714 85.124 188.935 84.7695C190.156 84.4306 191.417 84.2415 192.678 84.407L192.693 84.5882C191.559 85.0373 190.487 85.5259 189.479 86.0932C188.478 86.6605 187.54 87.2908 186.674 87.992C185.807 88.6854 184.98 89.4339 184.27 90.3006L183.758 90.9704C183.585 91.1989 183.451 91.4431 183.278 91.6716C182.97 92.1522 182.632 92.6329 182.372 93.1529C182.08 93.665 181.867 94.2166 181.678 94.776C181.529 95.3512 181.379 95.9264 181.355 96.5173C181.237 97.6992 181.513 98.8968 181.647 100.055C181.741 100.638 181.781 101.221 181.812 101.804C181.875 102.387 181.891 102.978 181.93 103.569C181.986 104.16 182.001 104.751 182.025 105.358C182.056 105.957 182.072 106.563 182.025 107.194L181.852 107.241L181.844 107.225Z" fill="#00262B"/>
<path d="M254.482 140.152C254.482 143.681 257.343 146.542 260.872 146.542C264.401 146.542 267.262 143.681 267.262 140.152V131.706C267.262 128.176 264.401 125.316 260.872 125.316C257.343 125.316 254.482 128.176 254.482 131.706V140.152Z" fill="#FFC89F"/>
<path d="M259.146 128.649C259.682 128.578 260.242 128.609 260.793 128.728C261.337 128.862 261.865 129.082 262.337 129.389C263.299 129.996 264.055 130.95 264.433 132.037C264.614 132.581 264.733 133.156 264.733 133.731C264.733 134.29 264.709 134.81 264.677 135.354C264.622 136.433 264.544 137.505 264.394 138.584C264.244 137.505 264.165 136.433 264.11 135.354C264.071 134.818 264.079 134.267 264.039 133.747C264.024 133.242 263.913 132.746 263.748 132.273C263.598 131.793 263.354 131.351 263.054 130.942C262.763 130.532 262.416 130.162 262.014 129.846C261.612 129.539 261.171 129.263 260.683 129.066C260.202 128.869 259.682 128.743 259.146 128.649Z" fill="#FF9A6C"/>
<path d="M261.226 140.129C260.911 139.995 260.659 139.766 260.446 139.514C260.234 139.262 260.068 138.97 259.95 138.655C259.832 138.348 259.769 138.017 259.769 137.686C259.769 137.355 259.816 137.024 259.966 136.709C260.115 137.016 260.218 137.308 260.328 137.584L260.628 138.403L260.927 139.222C261.029 139.506 261.132 139.79 261.219 140.121L261.226 140.129Z" fill="#FF9A6C"/>
<path d="M276.291 115.451C277.111 116.271 277.694 117.248 278.19 118.256C278.434 118.768 278.647 119.288 278.821 119.816C279.01 120.344 279.144 120.896 279.222 121.455C279.38 122.582 279.309 123.724 279.38 124.835C279.443 125.946 279.601 127.034 279.742 128.16L279.829 129.011C279.845 129.295 279.853 129.579 279.861 129.87C279.868 130.154 279.837 130.445 279.821 130.729C279.805 131.013 279.766 131.296 279.719 131.588C279.648 132.163 279.514 132.722 279.388 133.29C279.222 133.841 279.049 134.401 278.797 134.928C278.568 135.464 278.261 135.961 277.962 136.457C277.623 136.93 277.3 137.41 276.898 137.828C276.709 138.041 276.512 138.253 276.307 138.45C276.094 138.647 275.874 138.829 275.661 139.018C275.448 139.207 275.212 139.372 274.976 139.53C274.739 139.687 274.495 139.837 274.251 139.979L274.125 139.845C275.275 137.899 276.307 136.11 277.024 134.172C277.229 133.699 277.387 133.211 277.584 132.73C277.741 132.242 277.93 131.753 278.056 131.249C278.127 130.997 278.198 130.745 278.245 130.485C278.301 130.225 278.371 129.972 278.427 129.712C278.482 129.452 278.537 129.192 278.608 128.932L278.765 128.137C278.962 127.073 279.002 125.97 278.813 124.906C278.631 123.835 278.135 122.826 277.773 121.825C277.584 121.321 277.434 120.817 277.292 120.297C277.15 119.785 277.008 119.265 276.874 118.745C276.599 117.705 276.339 116.657 276.142 115.538L276.299 115.451H276.291Z" fill="#00262B"/>
<path d="M224.84 64.3861C223.532 64.788 222.287 65.2056 221.058 65.6625C220.452 65.8989 219.845 66.1274 219.246 66.3874C219.096 66.4505 218.947 66.5135 218.797 66.5686C218.647 66.6317 218.506 66.7026 218.348 66.7656C218.049 66.8996 217.741 67.002 217.442 67.1202C216.843 67.3723 216.205 67.5772 215.598 67.853C215.291 67.9869 214.984 68.1208 214.692 68.2706C214.4 68.436 214.117 68.6015 213.833 68.7827C213.691 68.8772 213.55 68.9639 213.416 69.0585C213.282 69.1609 213.156 69.2633 213.029 69.3736C212.777 69.5864 212.525 69.807 212.281 70.0355C212.029 70.2482 211.824 70.5161 211.603 70.7682C211.383 71.0204 211.178 71.2804 210.965 71.5325C210.563 72.0604 210.209 72.6277 209.807 73.1478C209.405 73.6914 208.956 74.243 208.515 74.7787C208.034 75.2909 207.561 75.8109 207.033 76.2915C206.498 76.7564 205.946 77.2213 205.316 77.5837C204.087 78.3322 202.653 78.8838 201.156 78.9232C199.674 78.9705 198.13 78.5371 197.145 77.4655L197.255 77.3237C198.508 77.8122 199.808 77.7886 200.974 77.5049C201.565 77.3631 202.133 77.1425 202.684 76.8825L202.889 76.7879L203.086 76.6697L203.488 76.4412C203.622 76.3625 203.756 76.2994 203.89 76.2128L204.276 75.9449C204.804 75.6218 205.292 75.2121 205.804 74.8418C206.064 74.6606 206.293 74.4242 206.537 74.2193C206.781 74.0066 207.033 73.8017 207.27 73.5811C207.735 73.1162 208.184 72.6592 208.68 72.2023C208.932 71.9659 209.192 71.7295 209.452 71.501C209.72 71.2725 209.964 71.0361 210.24 70.8234C210.8 70.4137 211.328 69.9725 211.871 69.5549C212.147 69.35 212.415 69.1451 212.683 68.9245L213.077 68.6015C213.219 68.499 213.345 68.3966 213.486 68.2942C213.754 68.0815 214.014 67.8608 214.274 67.6323C214.534 67.4038 214.81 67.2069 215.078 66.9784C215.606 66.5214 216.181 66.1274 216.764 65.7413C217.064 65.5522 217.379 65.4025 217.686 65.2528C217.844 65.174 218.001 65.1031 218.159 65.0322L218.655 64.851C219.309 64.5989 219.987 64.4255 220.664 64.2758C221.35 64.1419 222.043 64.0394 222.744 64.0237C223.438 63.9922 224.147 64.0237 224.832 64.1813V64.3625L224.84 64.3861Z" fill="#00262B"/>
<path d="M189.132 84.1078C190.101 84.3521 191.078 84.5097 192.055 84.5806C193.032 84.6751 194.017 84.6751 194.994 84.6278C196.948 84.5175 198.878 84.1472 200.699 83.446C201.613 83.115 202.503 82.7053 203.346 82.2247C203.779 82.0041 204.189 81.7283 204.607 81.4762L205.205 81.0586C205.41 80.9246 205.607 80.7828 205.804 80.6252C207.364 79.4355 208.791 78.0645 210.098 76.5596C209.019 78.23 207.703 79.7743 206.159 81.0665C205.781 81.4053 205.371 81.6889 204.969 81.9962C204.544 82.272 204.134 82.5714 203.693 82.8156C202.826 83.3357 201.904 83.7611 200.951 84.1236C199.052 84.8327 197.027 85.1873 195.01 85.1873C192.993 85.1873 190.976 84.8563 189.124 84.0999L189.132 84.1078Z" fill="#2D494E"/>
<path d="M183.018 122.219C183.475 121.754 183.814 121.211 184.066 120.635C184.326 120.06 184.523 119.461 184.657 118.847C184.798 118.232 184.885 117.61 184.932 116.987L184.987 116.042L184.972 115.096C184.98 114.781 184.956 114.466 184.924 114.151L184.854 113.205C184.767 112.575 184.688 111.945 184.594 111.307C184.467 110.676 184.381 110.046 184.247 109.416C184.113 108.785 183.979 108.155 183.869 107.509C184.129 108.1 184.357 108.714 184.594 109.321C184.806 109.936 184.972 110.566 185.145 111.196C185.311 111.827 185.405 112.481 185.531 113.119L185.634 114.096C185.665 114.419 185.705 114.75 185.697 115.081C185.752 116.396 185.594 117.736 185.2 119.004C185.011 119.643 184.72 120.249 184.373 120.809C184.018 121.368 183.569 121.88 183.018 122.227V122.219Z" fill="#2D494E"/>
<path d="M207.947 120.123C206.947 121.226 205.773 122.163 204.52 122.991C203.898 123.408 203.244 123.778 202.582 124.125C201.912 124.464 201.219 124.763 200.517 125.031C199.107 125.543 197.618 125.906 196.113 125.993C194.608 126.095 193.087 125.922 191.669 125.457C193.15 125.622 194.616 125.63 196.058 125.433C196.775 125.331 197.492 125.205 198.193 125.008C198.894 124.826 199.588 124.614 200.273 124.354C201.636 123.857 202.952 123.219 204.236 122.51C205.513 121.793 206.758 120.997 207.955 120.123H207.947Z" fill="#2D494E"/>
<path d="M226.4 84.4937C223.785 85.8174 221.728 87.9684 220.176 90.3873C219.396 91.6007 218.718 92.8771 218.112 94.1929C217.497 95.5009 216.945 96.8482 216.425 98.2034C215.362 100.906 214.416 103.672 213.226 106.358C212.636 107.698 211.982 109.022 211.202 110.266C210.406 111.503 209.508 112.685 208.397 113.639C209.397 112.575 210.217 111.37 210.902 110.093C211.595 108.825 212.171 107.493 212.714 106.146C213.786 103.451 214.7 100.677 215.756 97.9513C216.827 95.233 218.017 92.5146 219.711 90.0879C220.554 88.8745 221.531 87.7477 222.65 86.7865C223.777 85.841 225.037 85.0373 226.4 84.5094V84.4937Z" fill="#2D494E"/>
<path d="M226.4 84.4936C227.023 84.1548 227.669 83.8475 228.315 83.5402C228.993 83.3118 229.662 83.0439 230.356 82.8626C230.71 82.7838 231.057 82.7129 231.42 82.642C231.601 82.6105 231.774 82.5632 231.955 82.5475L232.499 82.5002C232.861 82.4766 233.224 82.4293 233.586 82.445L234.681 82.5081C234.863 82.5081 235.044 82.5554 235.225 82.5869L235.761 82.6893C236.123 82.7445 236.47 82.8626 236.817 82.9808C236.99 83.0439 237.163 83.099 237.337 83.162L237.833 83.3984L238.33 83.6348L238.794 83.9263C240.024 84.7064 241.079 85.7701 241.725 87.0465C240.827 85.9434 239.724 85.0609 238.511 84.4148C237.297 83.7687 235.966 83.3748 234.611 83.2251L233.586 83.1542C233.247 83.1305 232.901 83.1778 232.554 83.1857L232.034 83.2014C231.861 83.2014 231.695 83.2487 231.522 83.2645C231.183 83.3196 230.836 83.3669 230.49 83.4063C230.143 83.4457 229.812 83.5639 229.465 83.6269L228.441 83.8633C227.771 84.076 227.102 84.2967 226.408 84.4858L226.4 84.4936Z" fill="#2D494E"/>
<path d="M277.962 126.34C277.851 124.921 277.749 123.511 277.457 122.148C277.174 120.785 276.701 119.493 276.086 118.224C275.795 117.586 275.48 116.948 275.196 116.294C274.912 115.64 274.645 114.97 274.432 114.284C273.991 112.921 273.707 111.511 273.573 110.093C274.006 111.456 274.432 112.795 274.968 114.095C275.496 115.395 276.134 116.64 276.748 117.925C277.04 118.579 277.331 119.24 277.552 119.934L277.71 120.454C277.757 120.627 277.796 120.808 277.836 120.982C277.875 121.163 277.922 121.336 277.954 121.51L278.025 122.045C278.214 123.479 278.159 124.921 277.97 126.332L277.962 126.34Z" fill="#2D494E"/>
<path d="M265.796 125.316C263.716 124.567 261.809 123.385 260.084 121.983C258.366 120.58 256.838 118.918 255.585 117.082C254.324 115.246 253.331 113.221 252.63 111.118C251.929 109.006 251.527 106.815 251.393 104.617C251.803 106.784 252.386 108.896 253.158 110.928C253.56 111.937 253.985 112.938 254.505 113.891C254.75 114.379 255.025 114.844 255.293 115.309C255.585 115.766 255.861 116.231 256.176 116.672C257.389 118.469 258.839 120.1 260.446 121.557C261.258 122.282 262.101 122.968 262.991 123.598C263.874 124.236 264.811 124.812 265.788 125.316H265.796Z" fill="#2D494E"/>
<path d="M241.757 78.2846C241.521 77.2287 241.473 76.1178 241.71 75.0147C241.828 74.4632 242.041 73.9116 242.411 73.431C242.773 72.9425 243.38 72.6037 243.987 72.517C244.601 72.4303 245.192 72.5485 245.728 72.714C246.256 72.9188 246.768 73.1473 247.233 73.4467C248.171 74.0298 248.998 74.7389 249.739 75.5268C248.809 74.9753 247.903 74.408 246.957 73.9431C246.027 73.494 245.011 73.0922 244.097 73.2261C243.648 73.2892 243.238 73.5019 242.939 73.8643C242.632 74.2189 242.419 74.6759 242.253 75.1565C241.946 76.1335 241.82 77.2051 241.757 78.2767V78.2846Z" fill="#2D494E"/>
<path d="M240.544 80.9873C240.024 79.9473 239.33 79.0018 238.526 78.1824C237.739 77.3472 236.832 76.6223 235.871 76.0156C233.941 74.7943 231.735 74.0616 229.473 73.7228C227.212 73.3682 224.896 73.447 222.65 73.9197C221.531 74.164 220.428 74.5028 219.356 74.944C218.285 75.3774 217.253 75.9132 216.284 76.5593C218.056 75.0386 220.239 73.9828 222.516 73.3761C224.801 72.7694 227.228 72.6512 229.576 73.0057C230.75 73.187 231.908 73.4785 233.027 73.8882C234.138 74.3216 235.209 74.8495 236.186 75.535C238.14 76.8823 239.748 78.7733 240.544 80.9795V80.9873Z" fill="#2D494E"/>
<path d="M190.873 111.464C189.912 110.983 189.195 110.061 188.777 109.045C188.683 108.785 188.604 108.525 188.525 108.257L188.383 107.445C188.352 106.894 188.328 106.342 188.399 105.806C188.423 105.531 188.454 105.263 188.525 105.003L188.699 104.207C188.77 103.947 188.872 103.695 188.959 103.443C189.053 103.191 189.132 102.931 189.242 102.694C189.479 102.214 189.699 101.725 189.967 101.268C190.259 100.819 190.542 100.37 190.85 99.9443C190.676 100.449 190.479 100.937 190.282 101.426C190.093 101.914 189.951 102.418 189.762 102.899C189.621 103.395 189.479 103.892 189.353 104.388C189.274 104.892 189.124 105.389 189.108 105.893C188.99 106.894 189.03 107.918 189.305 108.879C189.597 109.833 190.085 110.755 190.865 111.479L190.873 111.464Z" fill="#2D494E"/>
<path d="M194.529 111.944C194.088 112.133 193.584 112.204 193.087 112.133C192.591 112.07 192.087 111.858 191.685 111.519C191.283 111.18 190.984 110.739 190.779 110.274C190.676 110.045 190.613 109.801 190.535 109.565C190.487 109.32 190.448 109.076 190.408 108.832L191.047 108.761C191.047 109.21 191.047 109.659 191.015 110.101C190.992 110.55 190.952 110.999 190.881 111.448C190.755 111.007 190.661 110.565 190.59 110.124C190.511 109.683 190.448 109.242 190.401 108.793L191.039 108.722C191.094 108.934 191.157 109.147 191.212 109.368C191.299 109.573 191.354 109.785 191.441 109.974C191.614 110.368 191.842 110.715 192.126 111.022C192.418 111.314 192.78 111.542 193.19 111.692C193.599 111.842 194.057 111.921 194.537 111.929L194.529 111.944Z" fill="#2D494E"/>
<path d="M201.723 91.5607C200.312 92.8844 199.044 94.3263 197.909 95.8627C196.783 97.3991 195.806 99.0459 195.089 100.795C194.718 101.662 194.427 102.568 194.214 103.49C194.088 103.947 194.025 104.412 193.938 104.876C193.891 105.349 193.82 105.814 193.804 106.287C193.765 106.76 193.796 107.232 193.789 107.705C193.828 108.178 193.836 108.658 193.922 109.123C194.025 110.077 194.277 110.999 194.521 111.936C194.127 111.054 193.773 110.14 193.568 109.186C193.442 108.714 193.395 108.225 193.316 107.737C193.276 107.248 193.229 106.76 193.237 106.263C193.213 105.278 193.339 104.293 193.536 103.324C193.741 102.363 194.033 101.418 194.411 100.504C194.797 99.5974 195.238 98.7228 195.75 97.8798C196.27 97.0446 196.838 96.2488 197.46 95.5003C198.705 93.9953 200.116 92.6322 201.723 91.5449V91.5607Z" fill="#2D494E"/>
<path d="M217.749 93.484C216.654 96.092 215.33 98.6134 213.849 101.024C212.368 103.443 210.697 105.76 208.83 107.903C207.876 108.967 206.892 109.999 205.828 110.944C204.748 111.882 203.622 112.764 202.4 113.513C201.187 114.269 199.863 114.868 198.492 115.278C197.114 115.664 195.68 115.861 194.269 115.735C195.687 115.695 197.074 115.435 198.382 114.939C199.69 114.466 200.935 113.812 202.093 113.04C204.402 111.48 206.442 109.534 208.286 107.422C209.224 106.382 210.091 105.271 210.941 104.152C211.792 103.034 212.596 101.883 213.384 100.709C214.164 99.5352 214.92 98.3455 215.645 97.14C216.386 95.9423 217.079 94.7132 217.757 93.4683L217.749 93.484Z" fill="#2D494E"/>
<path d="M270.91 139.458C270.563 140.168 270.138 140.814 269.752 141.468C269.366 142.122 268.995 142.776 268.719 143.461C268.428 144.139 268.231 144.848 268.144 145.573C268.058 146.305 268.097 147.054 268.215 147.834C267.813 147.156 267.593 146.361 267.577 145.549C267.553 144.738 267.742 143.926 268.05 143.177C268.365 142.437 268.79 141.759 269.287 141.145C269.775 140.53 270.327 139.979 270.91 139.458Z" fill="#2D494E"/>
<path d="M270.949 101.749C270.674 104.948 270.634 108.163 270.768 111.362C270.902 114.561 271.209 117.752 271.753 120.896C271.911 121.676 272.045 122.464 272.21 123.244C272.391 124.024 272.557 124.796 272.746 125.584C272.943 126.364 273.116 127.16 273.25 127.955C273.392 128.751 273.518 129.555 273.589 130.366C273.739 131.982 273.739 133.652 273.313 135.244C272.903 136.851 271.958 138.238 270.91 139.443C271.343 138.766 271.777 138.088 272.115 137.371C272.454 136.654 272.706 135.905 272.864 135.133C273.171 133.597 273.108 131.997 272.919 130.429C272.73 128.854 272.407 127.293 272.052 125.741L271.524 123.378C271.359 122.59 271.233 121.786 271.091 120.99C270.579 117.799 270.343 114.577 270.311 111.354C270.295 110.55 270.319 109.747 270.327 108.935C270.358 108.131 270.39 107.328 270.445 106.524C270.555 104.917 270.689 103.317 270.949 101.726V101.749Z" fill="#2D494E"/>
<path d="M281.767 121.337C281.027 121.423 280.27 121.266 279.577 120.99C278.876 120.714 278.23 120.304 277.662 119.808C277.111 119.296 276.622 118.713 276.26 118.067C276.055 117.752 275.929 117.405 275.771 117.066C275.645 116.719 275.535 116.365 275.448 116.01C275.685 116.302 275.874 116.609 276.079 116.901L276.402 117.326C276.504 117.468 276.607 117.618 276.725 117.744C277.158 118.295 277.647 118.792 278.151 119.264C279.191 120.178 280.373 120.903 281.775 121.329L281.767 121.337Z" fill="#2D494E"/>
<path d="M253.591 91.561C254.962 92.7035 256.255 93.9484 257.444 95.2958C258.634 96.6352 259.714 98.0929 260.612 99.6687C261.494 101.245 262.18 102.954 262.542 104.727C262.92 106.5 262.991 108.32 262.771 110.093C262.692 108.304 262.456 106.547 261.991 104.853C261.526 103.159 260.84 101.544 259.974 100.015C259.123 98.4868 258.09 97.0449 257.003 95.6503C255.908 94.2557 254.742 92.9163 253.584 91.561H253.591Z" fill="#2D494E"/>
<path d="M242.056 82.7996C242.135 81.8147 242.301 80.8298 242.568 79.8686C242.702 79.3879 242.868 78.9152 243.104 78.4582C243.341 78.0169 243.632 77.5521 244.136 77.2842C244.389 77.1581 244.696 77.1108 244.972 77.1581C245.255 77.2054 245.507 77.3236 245.736 77.4654C246.169 77.7569 246.571 78.0721 246.926 78.4582C247.643 79.2146 248.115 80.168 248.454 81.1213C248.777 82.0826 249.029 83.036 249.305 83.9736C249.447 84.4385 249.597 84.9033 249.77 85.3525C249.936 85.8094 250.125 86.2586 250.329 86.6919C251.149 88.449 252.299 90.0563 253.584 91.5612C252.055 90.3006 250.708 88.7641 249.762 86.9677C249.282 86.0773 248.911 85.1318 248.612 84.1785C248.297 83.2251 248.084 82.2559 247.784 81.3341C247.501 80.4122 247.099 79.5455 246.508 78.8127C246.209 78.4503 245.854 78.1115 245.492 77.8278C245.121 77.5678 244.68 77.4339 244.294 77.623C243.9 77.7963 243.593 78.1903 243.349 78.6C243.104 79.0176 242.915 79.4667 242.758 79.9316C242.442 80.8613 242.214 81.8226 242.048 82.7996H242.056Z" fill="#2D494E"/>
<path d="M257.964 78.2847C258.248 78.8993 258.634 79.443 259.068 79.9472C259.28 80.1994 259.509 80.4357 259.737 80.6721C259.989 80.8927 260.21 81.137 260.47 81.3419C261.471 82.2007 262.574 82.9492 263.74 83.5717C264.299 83.9183 264.914 84.1862 265.505 84.4935C266.104 84.785 266.726 85.0293 267.333 85.313L269.2 86.0536C269.83 86.2821 270.469 86.5106 271.091 86.7706C270.421 86.6682 269.76 86.5263 269.09 86.3924C268.436 86.2269 267.782 86.0378 267.128 85.8409C266.482 85.6202 265.852 85.376 265.213 85.116C264.599 84.8244 263.968 84.5566 263.377 84.202C263.086 84.0286 262.779 83.8711 262.495 83.6741L261.644 83.0989C261.1 82.6734 260.565 82.248 260.084 81.7516C259.832 81.5152 259.619 81.2473 259.391 80.9873C259.178 80.7115 258.965 80.4436 258.784 80.1521C258.414 79.5769 258.098 78.9466 257.964 78.2769V78.2847Z" fill="#2D494E"/>
<g style="mix-blend-mode:multiply" opacity="0.4">
<path d="M249.999 314.376C249.999 314.376 242.718 315.314 245.027 323.374C247.335 331.435 258.547 316.74 258.547 316.74C258.547 316.74 256.396 313.163 249.991 314.368L249.999 314.376Z" fill="#A65B3C"/>
</g>
<g style="mix-blend-mode:multiply" opacity="0.4">
<path d="M346.865 303.046C346.865 303.046 338.466 295.269 329.302 293.89C329.302 293.89 347.708 295.576 346.865 303.046Z" fill="#A65B3C"/>
</g>
<g style="mix-blend-mode:multiply" opacity="0.4">
<path d="M357.715 298.657C357.715 298.657 352.365 287.468 342.012 287.792C342.012 287.792 358.172 287.303 357.715 298.657Z" fill="#A65B3C"/>
</g>
<g style="mix-blend-mode:multiply" opacity="0.4">
<path d="M345.108 249.901C345.108 249.901 343.335 241.841 333.746 249.066C333.746 249.066 341.862 244.315 345.108 249.901Z" fill="#A65B3C"/>
</g>
<g style="mix-blend-mode:multiply" opacity="0.4">
<path d="M314.568 300.847C314.568 300.847 310.408 303.574 309.258 294.308C309.258 294.308 302.757 273.972 301.253 265.328C301.253 265.328 306.114 295.962 307.501 302.809C307.501 302.809 312.079 302.281 314.568 300.84V300.847Z" fill="#A65B3C"/>
</g>
<g style="mix-blend-mode:multiply" opacity="0.4">
<path d="M280.349 310.192C280.349 310.192 288.086 297.924 290.521 285.16C290.521 285.16 283.981 302.802 273.928 311.169L280.341 310.192H280.349Z" fill="#A65B3C"/>
</g>
<g style="mix-blend-mode:multiply" opacity="0.4">
<path d="M230.443 259.365C230.348 259.278 230.261 259.191 230.167 259.104C230.167 259.104 230.261 259.199 230.443 259.365Z" fill="#1F4168"/>
</g>
<g style="mix-blend-mode:multiply" opacity="0.4">
<path d="M259.13 266.314C258.61 269.576 255.309 271.593 252.165 270.592C239.692 266.629 231.853 260.68 230.442 259.365C242.71 271.16 260.084 278.881 260.084 278.881L260.312 273.035L261.242 245.135C261.242 245.135 260.58 257.198 259.123 266.314H259.13Z" fill="#1F4168"/>
</g>
<g style="mix-blend-mode:multiply" opacity="0.4">
<path d="M216.213 222.592C215.047 214.555 213.904 207.133 212.896 200.766L250.054 194.51C254.143 215.926 222.642 221.646 216.213 222.584V222.592Z" fill="#1F4168"/>
</g>
<g style="mix-blend-mode:multiply" opacity="0.4">
<path d="M223.611 325.793C225.006 317.449 224.856 304.37 223.84 289.383C223.792 288.666 223.745 287.949 223.69 287.225L227.779 324.202L223.611 325.793Z" fill="#1F4168"/>
</g>
<g style="mix-blend-mode:multiply" opacity="0.4">
<path d="M196.727 278.88C203.078 280.054 196.57 301.572 186.311 320.672L192.425 317.914C192.425 317.914 207.995 294.686 199.241 278.88L208.255 255.109C209.295 252.359 208.318 249.255 205.883 247.6C204.441 256.149 197.689 267.219 196.727 278.88Z" fill="#A65B3C"/>
</g>
<g style="mix-blend-mode:multiply" opacity="0.4">
<path d="M207.522 300.382C207.522 300.382 213.455 318.749 218.301 326.321L220.003 320.514L218.994 304.842C218.994 304.842 219.089 310.405 218.505 312.319C217.828 314.518 216.37 314.541 214.913 313.17C212.115 310.546 207.522 300.382 207.522 300.382Z" fill="#A65B3C"/>
</g>
<path d="M162.406 253.895C161.452 255.045 160.499 256.188 159.561 257.346C159.089 257.921 158.616 258.497 158.151 259.08C157.686 259.663 157.213 260.238 156.756 260.821C155.827 261.987 154.905 263.153 153.999 264.335L152.636 266.108L151.296 267.896C150.839 268.487 150.414 269.094 149.973 269.693C149.531 270.292 149.09 270.898 148.672 271.505L147.388 273.333L146.143 275.185C145.718 275.791 145.34 276.437 144.93 277.06L144.323 277.997C144.126 278.313 143.945 278.636 143.748 278.951L143.173 279.904C142.984 280.219 142.787 280.542 142.613 280.873C142.259 281.527 141.904 282.181 141.542 282.835C142.755 280.109 144.236 277.501 145.82 274.972C147.404 272.435 149.137 270 150.91 267.597C152.691 265.202 154.558 262.869 156.473 260.577C158.387 258.284 160.357 256.046 162.422 253.887L162.406 253.895Z" fill="#A65B3C"/>
<path d="M176.147 228.667C176.005 228.714 175.871 228.793 175.745 228.871C175.611 228.942 175.501 229.053 175.383 229.139C175.257 229.226 175.154 229.336 175.044 229.431C174.934 229.533 174.816 229.628 174.713 229.738C174.508 229.959 174.295 230.171 174.106 230.408L173.539 231.109C172.814 232.078 172.144 233.079 171.53 234.119L171.073 234.899C170.915 235.159 170.766 235.419 170.624 235.687L169.765 237.278L168.946 238.902L168.536 239.713C168.402 239.981 168.284 240.265 168.15 240.533C167.638 241.628 167.11 242.715 166.637 243.834C166.148 244.937 165.652 246.048 165.195 247.167C164.242 249.397 163.343 251.65 162.406 253.888C162.776 252.729 163.186 251.587 163.572 250.437L163.871 249.578L164.194 248.727L164.84 247.025C165.258 245.882 165.747 244.772 166.211 243.653C166.676 242.526 167.196 241.431 167.708 240.328C167.842 240.052 167.961 239.776 168.102 239.508L168.52 238.697C168.796 238.153 169.064 237.609 169.355 237.074L170.253 235.482C170.545 234.946 170.892 234.442 171.207 233.922C171.861 232.89 172.578 231.905 173.358 230.967L173.972 230.29C174.177 230.069 174.414 229.864 174.626 229.651C175.091 229.257 175.564 228.848 176.147 228.667Z" fill="#846E00"/>
<path d="M148.602 236.633C150.28 235.601 152.053 234.726 153.873 233.962C155.693 233.197 157.568 232.559 159.467 232.023C159.948 231.897 160.42 231.756 160.901 231.653L162.351 231.33C162.831 231.228 163.328 231.157 163.808 231.07L164.541 230.944C164.785 230.905 165.03 230.889 165.274 230.857L166.747 230.692L168.229 230.613L168.969 230.582L169.71 230.597C170.206 230.597 170.695 230.621 171.183 230.637C170.695 230.668 170.198 230.7 169.71 230.731L168.977 230.771L168.244 230.857L166.779 231.015L165.329 231.236C163.399 231.559 161.484 231.96 159.601 232.496C157.71 233.016 155.85 233.623 154.015 234.316L152.644 234.852C152.194 235.041 151.737 235.222 151.28 235.419C150.374 235.798 149.484 236.207 148.594 236.641L148.602 236.633Z" fill="#846E00"/>
<path d="M164.06 192.54C165.833 193.509 167.512 194.667 169.103 195.912C170.703 197.157 172.223 198.505 173.657 199.939C174.02 200.293 174.366 200.663 174.713 201.034C175.06 201.404 175.414 201.759 175.745 202.153C176.407 202.925 177.077 203.681 177.691 204.485L178.156 205.084C178.314 205.281 178.471 205.486 178.613 205.69L179.488 206.927C179.787 207.337 180.047 207.77 180.315 208.196C180.583 208.621 180.851 209.055 181.111 209.488C179.905 207.865 178.7 206.25 177.392 204.721C176.1 203.177 174.729 201.704 173.311 200.285C171.9 198.851 170.403 197.512 168.867 196.212C167.322 194.92 165.739 193.675 164.06 192.54Z" fill="#846E00"/>
<path d="M258.248 196.472C255.9 199.269 253.016 201.602 249.888 203.508C246.752 205.407 243.278 206.762 239.677 207.487C237.865 207.826 236.029 207.968 234.193 207.968L232.814 207.928C232.357 207.897 231.9 207.85 231.443 207.81C231.215 207.787 230.986 207.771 230.758 207.739L230.08 207.629C229.631 207.55 229.174 207.487 228.725 207.393C227.834 207.172 226.928 206.999 226.062 206.707C225.628 206.573 225.179 206.447 224.754 206.297L223.469 205.809L222.831 205.565L222.209 205.281L220.964 204.706C220.144 204.312 219.349 203.847 218.553 203.414L219.79 204.005L220.404 204.304C220.609 204.406 220.814 204.501 221.027 204.588L222.287 205.108L222.918 205.368L223.564 205.588L224.848 206.037C225.282 206.171 225.723 206.282 226.156 206.408C227.023 206.676 227.921 206.825 228.804 207.022C229.245 207.109 229.702 207.156 230.151 207.227L230.821 207.33C231.041 207.361 231.27 207.369 231.498 207.393C231.947 207.424 232.396 207.471 232.853 207.503L234.209 207.527C236.013 207.511 237.825 207.353 239.598 207.007C241.371 206.668 243.12 206.164 244.814 205.525C246.508 204.887 248.139 204.083 249.715 203.185C251.291 202.287 252.796 201.255 254.222 200.136C255.664 199.025 257.019 197.804 258.264 196.472H258.248Z" fill="#1B1A2E"/>
<path d="M260.084 278.881C257.318 277.715 254.616 276.383 251.968 274.957C249.321 273.531 246.737 271.994 244.207 270.363C241.678 268.74 239.236 266.975 236.872 265.116C234.5 263.264 232.278 261.231 230.167 259.096C230.734 259.585 231.301 260.081 231.861 260.577C232.144 260.822 232.42 261.082 232.704 261.318L233.578 262.027C234.161 262.5 234.729 262.989 235.32 263.445L237.1 264.816C237.4 265.045 237.691 265.273 237.999 265.486L238.905 266.148C239.511 266.581 240.11 267.038 240.733 267.448L242.584 268.725L244.467 269.954C246.981 271.585 249.542 273.137 252.142 274.626L254.104 275.729C254.765 276.084 255.412 276.454 256.081 276.809C257.397 277.526 258.737 278.211 260.076 278.881H260.084Z" fill="#1B1A2E"/>
<path d="M227.456 299.634C229.213 300.848 231.041 301.935 232.901 302.967C234.76 303.991 236.659 304.961 238.605 305.819C240.544 306.694 242.513 307.49 244.522 308.183C246.524 308.908 248.572 309.491 250.629 310.066C250.101 309.972 249.581 309.869 249.061 309.759C248.541 309.657 248.013 309.554 247.493 309.412L245.941 309.01C245.421 308.877 244.916 308.703 244.404 308.546C243.372 308.246 242.379 307.86 241.371 307.498C240.867 307.316 240.378 307.096 239.882 306.899L239.141 306.592C238.897 306.489 238.653 306.371 238.408 306.261C236.454 305.386 234.555 304.393 232.72 303.298C230.884 302.203 229.103 300.997 227.464 299.634H227.456Z" fill="#1B1A2E"/>
<path d="M146.592 249.365C146.695 248.869 146.852 248.38 147.034 247.908C147.215 247.427 147.42 246.962 147.64 246.505C148.097 245.591 148.617 244.709 149.224 243.881C149.823 243.046 150.492 242.266 151.209 241.533C151.926 240.801 152.707 240.131 153.51 239.493C154.33 238.87 155.181 238.311 156.063 237.783C156.953 237.286 157.859 236.798 158.805 236.412C160.68 235.592 162.634 234.994 164.628 234.592C162.682 235.183 160.783 235.892 158.963 236.759C158.049 237.184 157.166 237.673 156.299 238.185C155.441 238.713 154.605 239.272 153.81 239.887C152.218 241.116 150.768 242.518 149.531 244.11C148.917 244.906 148.349 245.741 147.853 246.615C147.349 247.49 146.915 248.404 146.592 249.373V249.365Z" fill="#846E00"/>
<path d="M196.727 278.88C197.192 278.959 197.641 279.164 198.004 279.487C198.358 279.81 198.611 280.228 198.8 280.669C199.17 281.559 199.304 282.521 199.351 283.466C199.422 285.373 199.178 287.272 198.855 289.131C198.524 290.999 198.051 292.842 197.531 294.662C197.011 296.483 196.428 298.287 195.798 300.075C194.513 303.637 193.079 307.143 191.496 310.578C190.7 312.296 189.873 313.998 189.014 315.684C188.139 317.362 187.257 319.033 186.311 320.672C187.154 318.978 187.997 317.291 188.793 315.574C189.605 313.872 190.393 312.154 191.149 310.421C192.662 306.962 194.096 303.471 195.341 299.91C196.617 296.364 197.728 292.748 198.485 289.06C198.855 287.217 199.139 285.349 199.115 283.466C199.107 282.529 199.005 281.583 198.682 280.708C198.516 280.275 198.28 279.857 197.957 279.527C197.626 279.196 197.2 278.967 196.735 278.873L196.727 278.88Z" fill="#846E00"/>
<path d="M309.266 294.308C309.439 295.135 309.628 295.947 309.849 296.742C310.077 297.538 310.337 298.318 310.707 299.043C310.881 299.405 311.101 299.744 311.346 300.052C311.59 300.359 311.889 300.619 312.228 300.8C312.567 300.981 312.953 301.076 313.355 301.068C313.757 301.068 314.159 300.958 314.568 300.847C314.206 301.06 313.812 301.233 313.379 301.312C312.945 301.375 312.48 301.328 312.063 301.147C311.645 300.973 311.291 300.674 310.991 300.351C310.7 300.02 310.463 299.65 310.266 299.264C309.88 298.484 309.636 297.664 309.478 296.829C309.321 295.994 309.234 295.151 309.266 294.308Z" fill="#A65B3C"/>
<path d="M309.266 294.308C308.903 292.346 308.911 290.321 309.069 288.336C309.234 286.342 309.597 284.364 310.069 282.426L310.471 280.976L310.574 280.614L310.692 280.259L310.928 279.55C311.228 278.597 311.59 277.667 311.968 276.737C312.141 276.273 312.354 275.816 312.559 275.359L313.182 273.995C313.402 273.546 313.646 273.113 313.875 272.672C314.103 272.231 314.34 271.789 314.584 271.356C314.206 272.278 313.78 273.176 313.402 274.098L312.851 275.485C312.669 275.95 312.472 276.399 312.323 276.871L311.826 278.274L311.7 278.621L311.59 278.975L311.369 279.684C311.228 280.157 311.054 280.622 310.936 281.102L310.55 282.536C310.069 284.459 309.691 286.405 309.455 288.367C309.4 288.856 309.337 289.352 309.305 289.848L309.25 290.589L309.218 291.33C309.171 292.322 309.179 293.315 309.273 294.308H309.266Z" fill="#846E00"/>
<path d="M323.637 293.079C326.387 291.283 329.413 289.904 332.556 288.903C334.132 288.399 335.747 288.044 337.386 287.808C339.025 287.579 340.688 287.5 342.35 287.611C344.005 287.729 345.652 288.084 347.212 288.643L347.803 288.856C348 288.927 348.181 289.021 348.37 289.108L348.937 289.368C349.126 289.455 349.315 289.533 349.497 289.652L350.576 290.274C350.923 290.502 351.254 290.755 351.593 290.999C352.908 292.007 354.114 293.158 355.114 294.481C355.65 295.112 356.068 295.829 356.525 296.506C356.761 296.845 356.935 297.216 357.139 297.578L357.723 298.665L357.076 297.617C356.856 297.271 356.667 296.908 356.415 296.585C355.934 295.923 355.485 295.238 354.925 294.639C353.901 293.363 352.68 292.26 351.372 291.314C350.064 290.353 348.598 289.62 347.07 289.084C345.541 288.556 343.942 288.218 342.319 288.115C339.072 287.871 335.803 288.383 332.675 289.273C331.107 289.722 329.562 290.282 328.057 290.928C326.545 291.558 325.071 292.275 323.645 293.095L323.637 293.079Z" fill="#846E00"/>
<path d="M318.539 296.908C318.973 296.412 319.493 295.994 320.036 295.632C320.588 295.262 321.171 294.954 321.778 294.694C322.384 294.426 323.023 294.237 323.669 294.072C324.315 293.922 324.969 293.812 325.639 293.757C326.962 293.631 328.302 293.709 329.61 293.898C329.933 293.954 330.264 293.993 330.587 294.072L331.556 294.292C332.194 294.474 332.84 294.631 333.455 294.86C334.715 295.277 335.921 295.813 337.111 296.388C338.285 296.987 339.443 297.625 340.554 298.334C342.784 299.737 344.879 301.336 346.865 303.054C344.761 301.486 342.602 299.997 340.357 298.657C338.111 297.326 335.763 296.152 333.297 295.325C332.69 295.096 332.06 294.938 331.438 294.757L330.492 294.537C330.177 294.458 329.854 294.418 329.539 294.355C328.262 294.143 326.962 294.056 325.67 294.135C325.024 294.166 324.386 294.269 323.748 294.379C323.117 294.521 322.487 294.678 321.88 294.915C320.667 295.364 319.501 296.01 318.547 296.916L318.539 296.908Z" fill="#846E00"/>
<path d="M286.164 313.399C287.291 315.423 288.205 317.567 288.922 319.773C289.639 321.979 290.174 324.264 290.403 326.588C290.639 328.905 290.561 331.276 289.993 333.553C289.702 334.688 289.292 335.791 288.748 336.823C288.181 337.84 287.503 338.793 286.708 339.636C287.417 338.722 288.047 337.753 288.536 336.713C289.016 335.673 289.371 334.578 289.623 333.459C289.875 332.34 289.993 331.198 290.033 330.055C290.08 328.913 290.033 327.762 289.914 326.628C289.694 324.343 289.197 322.089 288.559 319.883C288.236 318.78 287.874 317.685 287.472 316.597C287.078 315.51 286.645 314.446 286.164 313.391V313.399Z" fill="#846E00"/>
<path d="M262.109 323.374C261.518 322.074 260.951 320.766 260.32 319.506C259.997 318.875 259.658 318.261 259.272 317.678C258.886 317.095 258.453 316.551 257.941 316.094C256.94 315.148 255.616 314.628 254.238 314.431C252.851 314.234 251.425 314.282 250.006 314.376C251.401 314.1 252.835 313.911 254.285 314.053C255.01 314.116 255.727 314.282 256.412 314.557C257.098 314.833 257.736 315.235 258.272 315.739C259.367 316.748 260.084 318.048 260.667 319.348C261.25 320.656 261.699 322.019 262.117 323.382L262.109 323.374Z" fill="#846E00"/>
<path d="M317.113 267.385C318.012 266.037 318.973 264.722 319.942 263.421C320.919 262.129 321.927 260.853 322.952 259.592C323.976 258.332 325.048 257.11 326.143 255.905C327.238 254.707 328.365 253.525 329.531 252.391C330.713 251.272 331.934 250.184 333.226 249.192C333.872 248.695 334.542 248.215 335.228 247.773C335.913 247.332 336.63 246.93 337.386 246.599C338.135 246.269 338.923 245.993 339.75 245.875C339.955 245.851 340.16 245.819 340.373 245.819C340.475 245.819 340.577 245.812 340.688 245.812L341.003 245.835H341.161L341.318 245.875L341.625 245.93L341.925 246.016C342.027 246.04 342.122 246.079 342.216 246.119C342.988 246.442 343.642 247.017 344.092 247.695C344.556 248.372 344.872 249.129 345.116 249.909C344.824 249.152 344.47 248.42 343.989 247.773C343.516 247.127 342.87 246.615 342.13 246.347C342.043 246.308 341.948 246.276 341.854 246.261L341.57 246.19L341.279 246.15L341.137 246.127H340.987L340.696 246.111C340.601 246.111 340.499 246.119 340.404 246.127C340.207 246.127 340.01 246.166 339.813 246.198C339.033 246.332 338.277 246.615 337.56 246.954C336.118 247.647 334.786 248.569 333.518 249.554C332.249 250.555 331.052 251.634 329.885 252.753C327.545 254.983 325.371 257.386 323.259 259.844C322.203 261.073 321.163 262.318 320.147 263.579C319.123 264.832 318.122 266.108 317.129 267.393L317.113 267.385Z" fill="#846E00"/>
<path d="M295.272 217.399C295.296 215.681 295.438 213.972 295.587 212.262C295.761 210.552 295.981 208.85 296.241 207.148C296.761 203.752 297.518 200.388 298.432 197.079C298.912 195.424 299.448 193.793 300.039 192.178C300.638 190.563 301.292 188.971 302.025 187.419C302.773 185.867 303.593 184.354 304.483 182.888C305.413 181.439 306.405 180.036 307.509 178.72C306.492 180.107 305.547 181.533 304.696 183.014C303.853 184.504 303.073 186.024 302.371 187.584C301.694 189.152 301.032 190.728 300.457 192.343C299.889 193.959 299.369 195.582 298.905 197.228C298.432 198.875 298.006 200.53 297.628 202.2C297.242 203.871 296.927 205.549 296.62 207.235C296.312 208.921 296.052 210.615 295.832 212.309C295.595 214.003 295.414 215.713 295.28 217.423L295.272 217.399Z" fill="#846E00"/>
<path d="M309.266 294.308C307.217 288.564 305.468 282.718 303.868 276.832C302.277 270.946 300.914 264.998 299.685 259.025L299.243 256.78C299.094 256.031 298.944 255.283 298.826 254.534L298.038 250.027C297.896 249.279 297.794 248.522 297.683 247.766L297.344 245.505L297.006 243.243C296.895 242.487 296.824 241.73 296.73 240.974L296.194 236.428L295.792 231.874L295.603 229.597L295.485 227.312L295.272 222.742L295.619 227.296L295.792 229.573L296.036 231.842L296.509 236.388L297.108 240.919C297.211 241.675 297.297 242.432 297.415 243.18L297.762 245.434L298.109 247.687C298.227 248.436 298.337 249.192 298.479 249.941L299.283 254.44C299.409 255.188 299.558 255.937 299.716 256.685L300.165 258.923C301.347 264.895 302.718 270.836 304.231 276.73L305.397 281.15C305.807 282.616 306.209 284.089 306.626 285.547C307.453 288.478 308.336 291.393 309.266 294.3V294.308Z" fill="#846E00"/>
<path d="M165.36 259.104C165.975 260.585 166.7 262.011 167.496 263.39C168.292 264.777 169.158 266.116 170.112 267.392C171.065 268.661 172.081 269.898 173.184 271.033C174.288 272.175 175.485 273.223 176.762 274.161C179.283 276.083 182.19 277.486 185.263 278.274C185.452 278.321 185.641 278.384 185.838 278.423L186.421 278.541L187.005 278.66C187.202 278.699 187.391 278.738 187.595 278.762L188.777 278.912L189.077 278.951L189.376 278.967L189.975 278.998L190.574 279.038C190.771 279.054 190.976 279.061 191.173 279.054L192.37 279.038C192.772 279.038 193.166 278.998 193.568 278.967L194.766 278.88C191.614 279.4 188.336 279.392 185.192 278.644L184.018 278.352L182.868 277.974C182.482 277.856 182.112 277.683 181.741 277.541C181.371 277.391 180.993 277.241 180.63 277.052C179.165 276.375 177.786 275.516 176.486 274.562C173.901 272.624 171.672 270.245 169.82 267.613C168.898 266.297 168.055 264.926 167.299 263.508C166.566 262.082 165.888 260.624 165.376 259.104H165.36Z" fill="#846E00"/>
<path d="M204 288.572C204.449 290.203 204.89 291.826 205.387 293.441C205.859 295.064 206.348 296.672 206.86 298.279C207.876 301.494 208.94 304.693 210.114 307.852C211.249 311.027 212.525 314.148 213.857 317.244C214.55 318.781 215.22 320.325 215.992 321.822C216.693 323.358 217.536 324.816 218.309 326.321C217.442 324.879 216.551 323.437 215.779 321.932C214.968 320.451 214.259 318.915 213.518 317.394C213.163 316.63 212.825 315.85 212.486 315.077L211.982 313.911L211.501 312.737C211.186 311.949 210.855 311.177 210.555 310.381L209.657 308.01C208.523 304.827 207.451 301.62 206.506 298.381C206.041 296.758 205.584 295.135 205.158 293.496C204.953 292.677 204.748 291.857 204.551 291.038C204.355 290.219 204.173 289.391 204 288.564V288.572Z" fill="#846E00"/>
<path d="M295.028 264.249C294.784 266.258 294.445 268.252 294.106 270.245C293.752 272.239 293.358 274.224 292.94 276.202C292.53 278.187 292.05 280.149 291.561 282.111C291.065 284.073 290.545 286.027 289.97 287.973C289.386 289.911 288.78 291.842 288.11 293.757C287.952 294.237 287.771 294.71 287.606 295.191C287.432 295.663 287.267 296.144 287.078 296.617L286.534 298.035L285.951 299.437C285.163 301.305 284.336 303.156 283.406 304.953C282.469 306.749 281.468 308.514 280.341 310.192C281.373 308.451 282.327 306.67 283.193 304.85C284.076 303.038 284.856 301.171 285.604 299.296C287.086 295.545 288.378 291.716 289.505 287.839C290.671 283.971 291.656 280.055 292.578 276.123C293.042 274.153 293.468 272.183 293.878 270.206C294.295 268.228 294.673 266.242 295.028 264.257V264.249Z" fill="#846E00"/>
<path d="M271.461 208.496C271.383 212.79 271.264 217.084 271.146 221.378C271.012 225.672 270.894 229.966 270.729 234.26C270.563 238.555 270.35 242.849 270.216 247.143C270.138 249.286 270.09 251.437 270.035 253.588C269.972 255.739 269.949 257.882 269.909 260.033L269.689 272.924L269.444 285.806C269.271 294.394 269.09 302.983 268.846 311.579H268.798C268.775 307.285 268.751 302.983 268.79 298.688L268.846 292.243L268.948 285.798C269.011 281.504 269.121 277.21 269.239 272.908C269.35 268.614 269.492 264.32 269.649 260.025C269.799 255.731 269.956 251.437 270.051 247.143L270.13 243.92L270.193 240.698L270.327 234.253C270.398 232.102 270.445 229.958 270.524 227.807L270.776 221.37C270.957 217.076 271.154 212.782 271.414 208.496H271.461Z" fill="#846E00"/>
<path d="M206.096 214.784C207.238 219.086 208.207 223.435 209.129 227.784C210.02 232.142 210.879 236.515 211.611 240.903C211.982 243.101 212.336 245.292 212.659 247.498L213.156 250.799L213.408 252.446L213.644 254.101C213.951 256.307 214.29 258.505 214.621 260.704C214.921 262.91 215.244 265.108 215.559 267.314L215.795 268.969L216.008 270.623L216.433 273.933C216.709 276.139 217.009 278.345 217.221 280.559L217.93 287.201C218.056 288.304 218.143 289.415 218.238 290.526L218.521 293.851L218.805 297.176C218.852 297.728 218.907 298.287 218.939 298.839L219.041 300.501L219.459 307.167C219.617 309.389 219.672 311.611 219.766 313.833L220.003 320.506H219.955L219.514 313.849C219.372 311.627 219.254 309.405 219.065 307.191C218.718 302.755 218.419 298.319 218.001 293.891C217.261 285.027 216.299 276.178 215.267 267.346C214.984 265.14 214.724 262.933 214.432 260.727C214.125 258.521 213.802 256.323 213.463 254.124C213.148 251.926 212.746 249.736 212.368 247.537C212.171 246.442 211.997 245.347 211.793 244.252L211.186 240.974C209.602 232.22 207.955 223.474 206.025 214.792L206.072 214.776L206.096 214.784Z" fill="#846E00"/>
<path d="M269.279 176.349C270.153 178.405 270.744 180.58 271.178 182.77C271.611 184.968 271.84 187.198 272.013 189.428C272.163 191.658 272.202 193.896 272.163 196.133C272.115 198.363 271.989 200.601 271.729 202.815C271.761 201.696 271.792 200.585 271.792 199.474C271.792 198.915 271.8 198.363 271.792 197.804C271.792 197.244 271.792 196.693 271.784 196.133C271.784 195.574 271.769 195.022 271.753 194.463C271.737 193.903 271.729 193.352 271.698 192.792L271.627 191.122L271.524 189.46C271.501 188.908 271.438 188.349 271.398 187.797L271.327 186.97L271.233 186.142C271.17 185.591 271.123 185.039 271.044 184.488L270.807 182.841C270.737 182.29 270.61 181.746 270.516 181.202L270.366 180.383L270.169 179.571L269.98 178.76L269.886 178.35C269.854 178.216 269.807 178.082 269.767 177.948C269.602 177.42 269.444 176.884 269.287 176.349H269.279Z" fill="#846E00"/>
<path d="M204.252 240.777C204.938 241.257 205.489 241.959 205.796 242.762C205.954 243.156 206.064 243.574 206.135 243.992C206.214 244.409 206.253 244.835 206.261 245.26C206.277 246.111 206.206 246.954 206.072 247.789C205.938 248.625 205.749 249.444 205.528 250.255C205.071 251.871 204.481 253.439 203.905 255.007C203.338 256.575 202.771 258.15 202.219 259.726L200.549 264.446C199.989 266.014 199.462 267.598 198.949 269.181C198.437 270.765 197.964 272.357 197.578 273.972C197.192 275.587 196.885 277.226 196.751 278.888H196.704C196.68 277.21 196.893 275.54 197.208 273.893C197.531 272.246 197.957 270.623 198.453 269.024C198.949 267.424 199.525 265.856 200.115 264.288C200.706 262.72 201.337 261.176 201.967 259.632C202.597 258.087 203.212 256.535 203.756 254.959C204.024 254.171 204.268 253.376 204.496 252.572C204.725 251.768 204.938 250.965 205.127 250.161C205.513 248.546 205.859 246.923 205.875 245.276C205.875 244.866 205.867 244.456 205.812 244.055C205.765 243.653 205.678 243.251 205.552 242.865C205.418 242.479 205.261 242.101 205.032 241.762C204.804 241.423 204.536 241.108 204.228 240.832L204.26 240.793L204.252 240.777Z" fill="#846E00"/>
<path d="M257.657 311.193C258.193 311.225 258.729 311.256 259.264 311.288L260.068 311.343C260.336 311.358 260.604 311.358 260.872 311.366L262.471 311.421H264.071L264.874 311.437L265.678 311.421L267.278 311.39C268.341 311.335 269.413 311.311 270.477 311.217C272.604 311.083 274.731 310.862 276.851 310.586C278.97 310.303 281.082 309.98 283.186 309.562C281.129 310.169 279.025 310.618 276.906 310.965C276.378 311.051 275.842 311.138 275.314 311.209L273.715 311.414C272.643 311.524 271.58 311.634 270.508 311.705C269.436 311.784 268.365 311.808 267.293 311.847H265.686C265.418 311.847 265.15 311.847 264.882 311.847L264.079 311.815C261.928 311.768 259.792 311.516 257.673 311.193H257.657Z" fill="#846E00"/>
<path d="M283.737 309.373C284.312 308.877 284.927 308.436 285.565 308.018C286.203 307.6 286.857 307.214 287.519 306.852C288.859 306.127 290.253 305.512 291.679 304.992C294.54 303.952 297.542 303.29 300.567 302.991C301.324 302.912 302.088 302.865 302.844 302.833L305.113 302.762C306.618 302.699 308.115 302.558 309.597 302.298C310.337 302.172 311.07 301.998 311.787 301.793C312.512 301.588 313.221 301.344 313.907 301.037C314.592 300.738 315.254 300.375 315.868 299.942C316.176 299.721 316.459 299.485 316.727 299.217C316.995 298.957 317.247 298.665 317.436 298.342C317.098 299.02 316.538 299.571 315.947 300.052C315.348 300.525 314.694 300.927 314.009 301.265C312.638 301.935 311.165 302.384 309.668 302.692C308.171 303.007 306.65 303.156 305.129 303.243L302.86 303.322C302.111 303.353 301.355 303.409 300.607 303.479C297.612 303.763 294.65 304.393 291.79 305.347C290.364 305.835 288.961 306.395 287.614 307.065C286.259 307.726 284.943 308.475 283.721 309.373H283.737Z" fill="#846E00"/>
<path d="M268.396 184.385H263.637C263.433 184.385 263.267 184.22 263.267 184.015C263.267 183.81 263.433 183.645 263.637 183.645H268.396C268.601 183.645 268.767 183.81 268.767 184.015C268.767 184.22 268.601 184.385 268.396 184.385Z" fill="white"/>
<path d="M269.011 219.542H264.252C264.047 219.542 263.882 219.377 263.882 219.172C263.882 218.967 264.047 218.802 264.252 218.802H269.011C269.216 218.802 269.381 218.967 269.381 219.172C269.381 219.377 269.216 219.542 269.011 219.542Z" fill="white"/>
<path d="M267.695 263.201H262.936C262.731 263.201 262.566 263.036 262.566 262.831C262.566 262.626 262.731 262.46 262.936 262.46H267.695C267.9 262.46 268.065 262.626 268.065 262.831C268.065 263.036 267.9 263.201 267.695 263.201Z" fill="white"/>
<path d="M220.16 268.023H216.811C216.607 268.023 216.441 267.857 216.441 267.653C216.441 267.448 216.607 267.282 216.811 267.282H220.16C220.365 267.282 220.53 267.448 220.53 267.653C220.53 267.857 220.365 268.023 220.16 268.023Z" fill="white"/>
<path d="M214.7 223.293H209.878C209.673 223.293 209.508 223.127 209.508 222.923C209.508 222.718 209.673 222.552 209.878 222.552H214.7C214.905 222.552 215.07 222.718 215.07 222.923C215.07 223.127 214.905 223.293 214.7 223.293Z" fill="white"/>
<path d="M266.371 306.851H261.612C261.408 306.851 261.242 306.686 261.242 306.481C261.242 306.276 261.408 306.111 261.612 306.111H266.371C266.576 306.111 266.742 306.276 266.742 306.481C266.742 306.686 266.576 306.851 266.371 306.851Z" fill="white"/>
<path d="M222.878 309.94H220.499C220.294 309.94 220.129 309.775 220.129 309.57C220.129 309.365 220.294 309.2 220.499 309.2H222.878C223.083 309.2 223.249 309.365 223.249 309.57C223.249 309.775 223.083 309.94 222.878 309.94Z" fill="white"/>
<path d="M247.501 230.778V233.379H245.736V230.778H247.501ZM247.627 230.652H245.618V233.497H247.627V230.652Z" fill="#F0F2F5"/>
<path d="M239.117 233.504H244.853V230.66H239.117V233.504Z" fill="#F0F2F5"/>
<path d="M238.251 230.778V233.379H234.595V230.778H238.251ZM238.377 230.652H234.477V233.497H238.377V230.652Z" fill="#F0F2F5"/>
<path d="M230.119 233.504H233.72V230.66H230.119V233.504Z" fill="#F0F2F5"/>
<path d="M241.268 237.972H247.627V235.128H241.268V237.972Z" fill="#F0F2F5"/>
<path d="M240.386 235.246V237.846H236.218V235.246H240.386ZM240.512 235.12H236.1V237.964H240.512V235.12Z" fill="#F0F2F5"/>
<path d="M232.255 237.972H235.351V235.128H232.255V237.972Z" fill="#F0F2F5"/>
<path d="M230.127 237.972H231.506V235.128H230.127V237.972Z" fill="#F0F2F5"/>
<path d="M200.194 182.747C200.194 182.747 203.299 174.339 201.62 164.821C201.62 164.821 202.558 158.66 201.29 153.798C200.793 151.876 202.897 150.34 204.599 151.356C206.695 152.601 208.672 155.366 208.601 161.394L209.949 165.665C209.949 165.665 208.846 179.697 200.194 182.754V182.747Z" fill="#FFC89F"/>
<path d="M215.078 163.348L237.14 161.969C238.448 161.891 239.724 162.363 240.662 163.285L245.437 167.981C246.043 168.58 246.477 169.336 246.681 170.172C247.115 171.921 247.981 175.167 249.108 177.83C249.928 179.776 248.052 181.754 246.051 181.076C244.168 180.438 242.238 178.886 241.261 175.411L237.242 171.133L230.001 172.985L215.062 163.34L215.078 163.348Z" fill="#FFC89F"/>
<path d="M192.803 165.31L192.378 168.218L199.411 169.245L199.836 166.337L192.803 165.31Z" fill="#1B8DBE"/>
<path d="M198.849 161.663L198.636 163.121L205.668 164.148L205.881 162.69L198.849 161.663Z" fill="#1B8DBE"/>
<path d="M198.711 168.851L200.169 169.064L201.196 162.032L199.738 161.819L198.711 168.851Z" fill="#1B8DBE"/>
<path d="M196.089 170.368L257.783 179.382L264.993 177.405L258.65 173.457L196.948 164.443L196.089 170.368Z" fill="white"/>
<path d="M202.916 165.328L202.05 171.253L203.54 171.471L204.405 165.546L202.916 165.328Z" fill="#1B8DBE"/>
<path d="M205.932 165.763L205.066 171.688L206.555 171.905L207.421 165.98L205.932 165.763Z" fill="#1B8DBE"/>
<path d="M263.685 176.593L264.993 177.405L263.511 177.815L263.685 176.593Z" fill="#1B8DBE"/>
<path d="M175.336 230.163C175.336 230.163 176.234 237.286 182.813 243.613C186.981 247.624 193.079 249.01 198.453 246.875C200.509 246.063 202.44 244.748 203.724 242.652L209.72 219.763C209.72 219.763 226.511 210.363 232.814 201.27L239.464 198.213C239.464 198.213 239.165 202.358 243.545 202.295C243.545 202.295 244.869 204.564 246.941 204.887C247.918 205.044 248.817 204.327 248.895 203.343L249.313 198.213C249.313 198.213 249.786 198.71 250.605 198.623C251.196 198.56 251.59 197.969 251.417 197.394C250.818 195.369 249.282 190.003 248.754 186.111C248.588 184.882 247.95 183.763 246.965 183.006C245.113 181.588 242.096 179.091 240.197 176.64C239.693 175.994 239.046 175.474 238.282 175.167C235.651 174.103 229.316 171.211 225.754 166.878C225.754 166.878 221.5 165.783 217.725 163.978C215.267 162.804 212.328 163.309 210.374 165.207C198.745 176.546 200.596 190.232 191.078 201.877C188.186 205.415 185.752 209.299 183.711 213.381L175.32 230.155L175.336 230.163Z" fill="#FFC89F"/>
<path d="M258.547 316.748C258.547 316.748 271.863 333.727 253.434 341.819L244.507 342.576C244.507 342.576 225.258 353.677 205.198 345.641L198.682 344.285L190.125 348.611C190.125 348.611 185.153 353.441 180.016 352.456C177.888 352.046 177.266 349.297 179.015 348.012C180.851 346.665 183.104 344.939 184.586 343.568C185.437 342.78 186.437 342.182 187.509 341.756C188.32 341.433 189.29 340.96 190.085 340.299L183.656 340.535L173.208 347.799C173.208 347.799 159.877 359.272 157.229 350.439C157.229 350.439 154.519 353.283 151.808 352.559C149.894 352.046 149.248 349.635 150.563 348.154C152.604 345.845 156.039 341.819 157.655 339.117C157.962 338.605 158.34 338.14 158.789 337.746C160.672 336.107 165.817 331.466 168.906 327.337C169.584 326.439 170.506 325.754 171.561 325.367C175.162 324.052 183.719 320.679 189.817 316.346C192.15 314.683 195.144 314.266 197.831 315.266C206.025 318.3 223.863 323.618 238.534 318.907C240.354 318.323 242.261 318.056 244.176 318.079C247.58 318.111 253.261 317.945 258.54 316.732L258.547 316.748Z" fill="#FFC89F"/>
<path d="M230.498 176.349C231.782 176.845 233.05 177.365 234.311 177.917C234.941 178.184 235.564 178.468 236.194 178.752C236.825 179.035 237.431 179.319 238.07 179.532C238.708 179.76 239.354 179.934 240.016 180.068C240.67 180.209 241.363 180.28 242.041 180.446C242.718 180.596 243.388 180.785 244.034 181.037C244.357 181.171 244.672 181.313 244.972 181.486C245.271 181.651 245.563 181.856 245.807 182.093C245.24 181.699 244.601 181.446 243.947 181.265C243.293 181.068 242.632 180.934 241.962 180.824C241.623 180.769 241.292 180.722 240.953 180.674C240.622 180.635 240.268 180.588 239.929 180.525C239.243 180.399 238.566 180.217 237.904 179.997C237.242 179.768 236.604 179.469 235.997 179.169C235.383 178.87 234.76 178.571 234.146 178.263C232.917 177.657 231.695 177.018 230.498 176.357V176.349Z" fill="#FF9A6C"/>
<path d="M234.201 184.787C235.091 185.425 236.06 185.938 237.029 186.442C237.999 186.938 238.991 187.395 239.984 187.852C240.48 188.073 240.977 188.317 241.481 188.522L242.238 188.845L243.01 189.136C243.522 189.326 244.05 189.491 244.578 189.641C244.838 189.72 245.106 189.783 245.373 189.901C245.633 190.011 245.886 190.153 246.106 190.334C246.555 190.689 246.918 191.169 247.115 191.721C247.217 191.997 247.272 192.288 247.304 192.58V192.8V193.021C247.304 193.171 247.28 193.297 247.272 193.439L247.131 195.077L247.052 195.897C247.02 196.188 246.957 196.48 246.863 196.764C246.76 197.039 246.626 197.307 246.469 197.551C246.39 197.678 246.303 197.788 246.224 197.898C246.146 198.008 246.075 198.119 246.004 198.229C245.712 198.678 245.46 199.159 245.232 199.647C245.003 200.136 244.783 200.64 244.593 201.152L244.452 201.538C244.396 201.664 244.365 201.79 244.294 201.932C244.144 202.2 243.837 202.358 243.553 202.326V202.279C243.821 202.263 244.058 202.09 244.152 201.861C244.199 201.751 244.223 201.609 244.255 201.475C244.286 201.341 244.326 201.207 244.357 201.073C244.507 200.538 244.672 200.01 244.877 199.49C245.082 198.97 245.318 198.465 245.602 197.977C245.673 197.859 245.744 197.733 245.823 197.614C245.901 197.488 245.98 197.386 246.043 197.276C246.177 197.055 246.287 196.827 246.366 196.582C246.445 196.338 246.508 196.094 246.532 195.842L246.618 195.022L246.807 193.383C246.823 193.249 246.839 193.108 246.855 192.982L246.87 192.792V192.603C246.863 192.351 246.823 192.091 246.744 191.847C246.666 191.603 246.555 191.366 246.421 191.146C246.287 190.925 246.114 190.72 245.925 190.547C245.736 190.366 245.515 190.216 245.279 190.098C245.043 189.972 244.782 189.901 244.522 189.806L242.955 189.286C241.907 188.955 240.859 188.616 239.819 188.223C238.794 187.813 237.794 187.324 236.84 186.773C235.887 186.213 234.957 185.599 234.161 184.819L234.193 184.779L234.201 184.787Z" fill="#FF9A6C"/>
<path d="M242.592 197.11C241.985 197.41 241.371 197.686 240.756 197.953C240.142 198.221 239.527 198.481 238.905 198.741L237.045 199.49C236.423 199.734 235.8 199.978 235.154 200.191C235.706 199.797 236.289 199.45 236.888 199.143C237.187 198.978 237.494 198.844 237.794 198.694C238.101 198.552 238.408 198.418 238.723 198.292C239.346 198.04 239.984 197.804 240.622 197.607C241.268 197.402 241.922 197.229 242.592 197.118V197.11Z" fill="#FF9A6C"/>
<path d="M220.2 167.485C221.295 167.099 222.492 166.894 223.682 167.02C223.974 167.067 224.273 167.107 224.565 167.178L224.998 167.304C225.14 167.343 225.289 167.39 225.423 167.446C225.699 167.556 225.983 167.666 226.243 167.808L226.637 168.013L227.023 168.233C228.039 168.848 228.961 169.557 229.883 170.266C230.805 170.975 231.719 171.685 232.649 172.394C231.609 171.858 230.624 171.228 229.662 170.574C228.693 169.92 227.764 169.234 226.779 168.651C225.802 168.06 224.754 167.587 223.643 167.398C222.524 167.209 221.366 167.288 220.215 167.485H220.2Z" fill="#FF9A6C"/>
<path d="M249.014 187.655C249.163 188.656 249.266 189.657 249.368 190.657L249.66 193.659L249.731 194.408C249.754 194.66 249.786 194.904 249.809 195.164C249.841 195.684 249.841 196.204 249.77 196.709C249.707 197.229 249.581 197.709 249.486 198.206C249.384 198.702 249.297 199.19 249.203 199.695C249.187 199.19 249.211 198.678 249.25 198.174C249.266 197.922 249.297 197.67 249.321 197.418C249.352 197.166 249.376 196.921 249.392 196.677C249.415 196.188 249.408 195.692 249.352 195.204C249.289 194.715 249.226 194.203 249.179 193.707C249.085 192.698 249.021 191.689 248.998 190.681C248.966 189.672 248.966 188.664 249.021 187.647L249.014 187.655Z" fill="#FF9A6C"/>
<path d="M224.903 177.499C224.848 177.089 224.99 176.648 225.258 176.302C225.526 175.947 225.928 175.703 226.345 175.585C226.55 175.514 226.763 175.498 226.976 175.474C227.078 175.466 227.188 175.474 227.291 175.474C227.393 175.474 227.504 175.474 227.606 175.49C227.811 175.521 228.016 175.553 228.213 175.616C228.41 175.679 228.599 175.75 228.788 175.837C228.583 175.86 228.378 175.852 228.181 175.86C227.984 175.86 227.787 175.884 227.59 175.884C227.401 175.908 227.204 175.915 227.023 175.947C226.842 175.986 226.653 176.002 226.479 176.065C226.133 176.168 225.802 176.325 225.534 176.569C225.266 176.814 225.045 177.129 224.896 177.507L224.903 177.499Z" fill="#FF9A6C"/>
<path d="M230.915 184.409C230.411 184.512 229.938 184.661 229.481 184.851C229.032 185.048 228.622 185.3 228.26 185.607C227.905 185.914 227.574 186.269 227.33 186.694C227.188 186.891 227.094 187.12 226.976 187.34C226.865 187.561 226.787 187.805 226.668 188.042C226.684 187.789 226.7 187.522 226.747 187.269C226.818 187.017 226.865 186.757 226.991 186.521C227.196 186.025 227.535 185.591 227.945 185.245C228.354 184.89 228.843 184.646 229.355 184.504C229.867 184.37 230.403 184.323 230.907 184.417L230.915 184.409Z" fill="#FF9A6C"/>
<path d="M239.464 198.213C239.559 198.418 239.614 198.607 239.669 198.796C239.724 198.986 239.771 199.167 239.811 199.356C239.85 199.537 239.89 199.726 239.921 199.915C239.945 200.112 239.984 200.301 239.984 200.53C239.622 200.27 239.425 199.868 239.338 199.466C239.291 199.261 239.275 199.049 239.291 198.844C239.306 198.631 239.354 198.426 239.464 198.229V198.213Z" fill="#FF9A6C"/>
<path d="M205.174 171.7C204.914 172.307 204.63 172.898 204.347 173.481L203.496 175.238C203.204 175.821 202.921 176.404 202.621 176.987C202.322 177.57 202.022 178.145 201.683 178.713C201.833 178.067 202.038 177.444 202.267 176.83C202.495 176.215 202.763 175.616 203.047 175.025C203.338 174.434 203.653 173.859 204.008 173.3C204.355 172.74 204.733 172.204 205.166 171.7H205.174Z" fill="#FF9A6C"/>
<path d="M250.59 194.518C250.243 193.573 249.943 192.611 249.676 191.642C249.416 190.673 249.179 189.696 249.006 188.703C248.927 188.207 248.856 187.703 248.801 187.206C248.738 186.71 248.706 186.198 248.62 185.717C248.423 184.748 247.855 183.865 247.083 183.267C246.272 182.691 245.452 182.093 244.68 181.454C243.9 180.816 243.136 180.162 242.411 179.453C241.694 178.736 241.008 177.995 240.394 177.184L239.953 176.577C239.803 176.388 239.645 176.199 239.464 176.033C239.11 175.695 238.7 175.411 238.259 175.183L238.274 175.135C238.755 175.285 239.22 175.529 239.63 175.844C239.834 176.002 240.024 176.175 240.197 176.372C240.37 176.569 240.528 176.75 240.693 176.94C241.355 177.68 242.056 178.389 242.773 179.075C243.49 179.768 244.223 180.446 244.972 181.1C245.728 181.762 246.484 182.4 247.249 183.062C248.005 183.763 248.525 184.693 248.762 185.678C248.825 185.922 248.864 186.182 248.903 186.426C248.951 186.67 249.006 186.915 249.053 187.159C249.155 187.647 249.274 188.136 249.392 188.624C249.62 189.601 249.825 190.578 250.03 191.555C250.243 192.532 250.44 193.517 250.621 194.51L250.574 194.526L250.59 194.518Z" fill="#FF9A6C"/>
<path d="M201.896 161.135C201.802 158.771 201.652 156.415 201.148 154.13C201.116 153.988 201.085 153.846 201.069 153.681C201.037 153.523 201.045 153.366 201.045 153.2C201.045 153.121 201.061 153.043 201.077 152.964C201.093 152.885 201.1 152.806 201.124 152.727C201.171 152.578 201.219 152.428 201.297 152.286C201.573 151.719 202.093 151.309 202.66 151.089C202.952 150.986 203.259 150.939 203.559 150.955C203.866 150.97 204.165 151.041 204.441 151.175C204.985 151.443 205.473 151.798 205.922 152.207C206.821 153.019 207.483 154.075 207.916 155.202C208.349 156.328 208.617 157.51 208.743 158.708L208.806 159.606C208.822 159.897 208.846 160.189 208.869 160.481C208.924 161.064 209.011 161.639 209.121 162.214C209.232 162.789 209.366 163.356 209.531 163.924C209.681 164.499 209.831 165.066 209.972 165.649L209.925 165.665C209.712 165.113 209.5 164.562 209.295 164.003C209.09 163.451 208.893 162.876 208.751 162.301C208.601 161.718 208.491 161.135 208.404 160.536C208.365 160.236 208.333 159.937 208.31 159.645L208.223 158.771C208.089 157.613 207.876 156.462 207.49 155.375C207.096 154.288 206.537 153.255 205.741 152.412C205.544 152.2 205.332 152.003 205.103 151.821C204.993 151.735 204.875 151.64 204.756 151.561L204.575 151.443C204.512 151.404 204.449 151.38 204.386 151.341C204.134 151.199 203.85 151.144 203.567 151.12C203.283 151.104 202.999 151.159 202.731 151.254C202.203 151.467 201.762 151.892 201.565 152.412C201.502 152.538 201.479 152.672 201.447 152.806C201.431 152.869 201.431 152.94 201.423 153.011C201.423 153.082 201.408 153.145 201.416 153.216C201.423 153.35 201.423 153.492 201.463 153.618C201.479 153.689 201.486 153.752 201.51 153.823L201.573 154.035C201.88 155.194 202.022 156.383 202.085 157.573C202.14 158.763 202.101 159.953 201.975 161.135H201.928H201.896Z" fill="#FF9A6C"/>
<path d="M249.211 178.129C249.392 178.571 249.423 179.083 249.297 179.555C249.171 180.036 248.895 180.477 248.509 180.808C248.131 181.147 247.643 181.368 247.131 181.431C247.004 181.439 246.871 181.446 246.744 181.446L246.358 181.407L245.988 181.313C245.87 181.273 245.76 181.234 245.641 181.186C245.192 181.005 244.759 180.769 244.357 180.493C243.963 180.209 243.585 179.886 243.27 179.524C242.616 178.807 242.151 177.94 241.852 177.042C242.332 177.854 242.876 178.626 243.538 179.256C244.199 179.886 244.972 180.399 245.815 180.729C245.917 180.769 246.027 180.808 246.13 180.848L246.437 180.934L246.752 180.974H247.068C247.493 180.934 247.903 180.769 248.257 180.509C248.959 179.989 249.368 179.059 249.195 178.121L249.211 178.129Z" fill="#FF9A6C"/>
<path d="M246.934 171.251C246.689 170.534 246.555 169.778 246.161 169.147C245.98 168.824 245.76 168.533 245.5 168.265C245.247 168.005 244.956 167.745 244.68 167.493C243.577 166.453 242.49 165.405 241.41 164.341L240.607 163.537C240.347 163.27 240.079 163.041 239.771 162.836C239.165 162.434 238.456 162.182 237.723 162.111C237.36 162.072 236.982 162.103 236.604 162.111L235.469 162.159C234.713 162.198 233.957 162.245 233.2 162.3C231.687 162.395 230.182 162.537 228.67 162.663C227.165 162.797 225.652 162.907 224.139 163.017C221.121 163.246 218.096 163.435 215.07 163.561H214.834L214.842 163.34L215.054 163.553C214.511 163.537 213.967 163.585 213.439 163.703C212.911 163.821 212.391 163.994 211.903 164.247C211.414 164.491 210.957 164.806 210.54 165.168L209.318 166.311L209.279 166.279C209.649 165.862 210.028 165.444 210.414 165.034C210.808 164.633 211.272 164.278 211.769 163.994C212.265 163.711 212.801 163.49 213.353 163.34C213.912 163.191 214.487 163.128 215.062 163.128H215.275V163.348L215.047 163.136C218.064 162.883 221.09 162.702 224.108 162.553C225.62 162.474 227.133 162.395 228.646 162.34C230.159 162.285 231.672 162.229 233.184 162.143C233.941 162.103 234.697 162.056 235.454 162.001L236.588 161.914C236.959 161.883 237.345 161.836 237.739 161.851C238.519 161.883 239.291 162.111 239.968 162.513C240.307 162.71 240.622 162.97 240.898 163.238L241.71 164.026C242.789 165.09 243.861 166.161 244.916 167.241C245.176 167.516 245.444 167.776 245.704 168.068C245.964 168.359 246.177 168.69 246.358 169.037C246.532 169.384 246.658 169.754 246.737 170.132C246.815 170.503 246.894 170.873 246.965 171.243L246.918 171.259L246.934 171.251Z" fill="#FF9A6C"/>
<path d="M198.91 353.78H60.2996C58.6608 353.78 57.2031 352.724 56.691 351.164L55.6115 347.847L27.1914 260.885C26.3877 258.434 28.2157 255.913 30.8 255.913H169.41C171.049 255.913 172.507 256.969 173.019 258.529L202.519 348.808C203.322 351.259 201.494 353.78 198.91 353.78Z" fill="#2D494E"/>
<path d="M264.276 347.382H192.867V353.78H262.188C264.528 353.78 266.435 351.881 266.435 349.533C266.435 348.344 265.465 347.375 264.276 347.375V347.382Z" fill="#2D494E"/>
<path d="M200.683 350.455C200.683 350.455 200.738 350.455 200.769 350.439C200.911 350.392 200.99 350.235 200.943 350.093L171.443 259.813C170.892 258.135 169.339 257.008 167.575 257.008H30.3352C30.1855 257.008 30.0594 257.134 30.0594 257.284C30.0594 257.434 30.1855 257.56 30.3352 257.56H167.575C169.103 257.56 170.45 258.537 170.923 259.987L200.423 350.266C200.462 350.384 200.565 350.455 200.683 350.455Z" fill="#386A73"/>
<path d="M210.193 351.613H217.875V349.998H210.193V351.613Z" fill="#386A73"/>
<path d="M218.947 351.613H226.629V349.998H218.947V351.613Z" fill="#386A73"/>
<path d="M234.484 351.621H228.63L227.716 350.81V350.006H235.398V350.81L234.484 351.621Z" fill="#386A73"/>
<path d="M260.202 352.551C261.148 352.551 261.92 351.779 261.92 350.833C261.92 349.888 261.148 349.116 260.202 349.116C259.257 349.116 258.484 349.888 258.484 350.833C258.484 351.779 259.257 352.551 260.202 352.551ZM260.202 349.391C260.998 349.391 261.644 350.038 261.644 350.833C261.644 351.629 260.998 352.275 260.202 352.275C259.406 352.275 258.76 351.629 258.76 350.833C258.76 350.038 259.406 349.391 260.202 349.391Z" fill="#386A73"/>
<path d="M261.392 350.833C261.392 351.487 260.864 352.023 260.202 352.023C259.54 352.023 259.012 351.495 259.012 350.833C259.012 350.171 259.54 349.644 260.202 349.644C260.864 349.644 261.392 350.171 261.392 350.833Z" fill="#386A73"/>
<path d="M257.689 350.833C257.689 351.708 256.979 352.417 256.105 352.417C255.23 352.417 254.521 351.708 254.521 350.833C254.521 349.959 255.23 349.25 256.105 349.25C256.979 349.25 257.689 349.959 257.689 350.833Z" fill="#386A73"/>
<path d="M168.236 353.78H88.6174C87.8452 353.78 87.1676 353.291 86.9706 352.582C86.687 351.566 87.5064 350.581 88.6174 350.581H168.236C169.009 350.581 169.686 351.07 169.883 351.779C170.167 352.795 169.347 353.78 168.236 353.78Z" fill="#386A73"/>
<path d="M199.54 353.78H182.34C181.505 353.78 180.756 353.284 180.496 352.543L179.669 350.203C179.259 349.037 180.197 347.847 181.513 347.847H198.713C199.548 347.847 200.297 348.344 200.557 349.084L201.384 351.424C201.794 352.59 200.856 353.78 199.54 353.78Z" fill="#386A73"/>
<path d="M73.8046 353.78H60.3075C58.6687 353.78 57.211 352.724 56.6989 351.164L55.6194 347.847C55.6746 347.839 55.7298 347.839 55.7849 347.839H72.9851C73.8282 347.839 74.5689 348.335 74.8289 349.084L75.6562 351.424C76.0659 352.582 75.1283 353.78 73.8124 353.78H73.8046Z" fill="#386A73"/>
<path d="M85.0245 300.06C83.693 299.303 82.6372 298.256 81.8571 296.908C81.0771 295.561 80.691 294.056 80.7068 292.378C80.7146 290.707 81.1244 289.21 81.9202 287.879C82.716 286.547 83.7875 285.523 85.1349 284.782C86.4822 284.042 87.9556 283.679 89.563 283.695C91.1703 283.711 92.6437 284.089 93.9753 284.845C95.3069 285.602 96.3548 286.65 97.1191 287.981C97.8834 289.321 98.2537 290.825 98.2458 292.496C98.2379 294.166 97.8361 295.671 97.0482 297.011C96.2602 298.342 95.1966 299.382 93.865 300.115C92.5255 300.856 91.06 301.218 89.4448 301.21C87.8295 301.202 86.364 300.816 85.0324 300.06H85.0245ZM92.7461 296.065C93.5734 295.159 93.991 293.961 93.9989 292.464C94.0068 290.952 93.605 289.746 92.7934 288.84C91.9819 287.934 90.8867 287.477 89.5236 287.469C88.1447 287.461 87.0416 287.902 86.2143 288.785C85.387 289.667 84.9694 290.881 84.9615 292.409C84.9536 293.922 85.3555 295.128 86.167 296.034C86.9786 296.94 88.0817 297.397 89.4605 297.405C90.8236 297.412 91.9188 296.971 92.7461 296.065Z" fill="white"/>
<path d="M106.432 287.958C107.149 287.572 107.984 287.382 108.946 287.39C110.065 287.39 111.081 287.69 111.987 288.265C112.893 288.84 113.602 289.66 114.122 290.715C114.642 291.771 114.902 293 114.887 294.403C114.879 295.797 114.603 297.027 114.067 298.09C113.531 299.154 112.807 299.966 111.893 300.533C110.979 301.1 109.962 301.384 108.843 301.376C107.898 301.376 107.07 301.171 106.353 300.777C105.636 300.383 105.069 299.879 104.667 299.256L104.612 307.632L100.444 307.6L100.578 287.532L104.746 287.564L104.73 289.486C105.14 288.856 105.707 288.352 106.424 287.966L106.432 287.958ZM109.805 291.913C109.048 291.133 108.063 290.857 106.842 291.094C105.416 291.629 104.699 292.725 104.683 294.356C104.675 295.963 105.361 297.058 106.74 297.625C107.961 297.917 108.969 297.649 109.757 296.838C110.348 296.231 110.648 295.411 110.648 294.371C110.648 293.331 110.372 292.512 109.797 291.913H109.805Z" fill="white"/>
<path d="M129.818 295.521L120.394 295.458C120.457 296.301 120.717 296.947 121.198 297.396C121.671 297.846 122.261 298.074 122.963 298.082C124.003 298.082 124.728 297.656 125.137 296.782L129.573 296.813C129.337 297.704 128.927 298.507 128.328 299.217C127.73 299.926 126.981 300.485 126.091 300.879C125.193 301.281 124.192 301.478 123.089 301.47C121.757 301.462 120.575 301.171 119.535 300.595C118.503 300.02 117.692 299.201 117.116 298.145C116.541 297.089 116.258 295.852 116.265 294.434C116.273 293.024 116.573 291.786 117.156 290.739C117.739 289.691 118.55 288.879 119.598 288.32C120.638 287.76 121.836 287.484 123.183 287.492C124.499 287.5 125.665 287.784 126.682 288.343C127.698 288.903 128.494 289.691 129.069 290.723C129.644 291.755 129.92 292.945 129.912 294.308C129.912 294.694 129.881 295.104 129.833 295.521H129.818ZM125.642 293.181C125.642 292.464 125.405 291.897 124.925 291.471C124.444 291.046 123.829 290.833 123.105 290.825C122.403 290.825 121.82 291.022 121.332 291.424C120.851 291.826 120.552 292.401 120.433 293.15L125.65 293.181H125.642Z" fill="white"/>
<path d="M144.221 289.218C145.166 290.258 145.631 291.676 145.615 293.481L145.56 301.423L141.416 301.391L141.463 294.009C141.463 293.103 141.234 292.393 140.77 291.881C140.305 291.369 139.667 291.117 138.871 291.117C138.075 291.117 137.445 291.361 136.964 291.858C136.483 292.354 136.247 293.063 136.247 293.969L136.2 301.352L132.032 301.321L132.126 287.729L136.294 287.76L136.279 289.565C136.704 288.966 137.279 288.501 137.996 288.154C138.713 287.808 139.517 287.642 140.407 287.65C141.999 287.658 143.267 288.186 144.205 289.226L144.221 289.218Z" fill="white"/>
<path d="M73.8361 327.015C72.8433 326.621 72.0475 326.022 71.4487 325.234C70.8499 324.446 70.5268 323.485 70.4874 322.366L74.9234 322.327C74.9943 322.957 75.215 323.438 75.5932 323.769C75.9714 324.099 76.4599 324.265 77.0587 324.257C77.6733 324.257 78.1618 324.107 78.5163 323.816C78.8709 323.532 79.0442 323.13 79.0442 322.626C79.0442 322.201 78.8945 321.854 78.6109 321.586C78.3272 321.31 77.9727 321.09 77.5551 320.916C77.1375 320.743 76.5465 320.546 75.7822 320.325C74.6713 319.994 73.7731 319.663 73.0718 319.325C72.3706 318.986 71.7639 318.489 71.2596 317.828C70.7475 317.166 70.4953 316.299 70.4796 315.227C70.4638 313.636 71.0311 312.383 72.1815 311.477C73.324 310.563 74.821 310.106 76.6726 310.09C78.5557 310.074 80.0764 310.516 81.2425 311.406C82.4008 312.296 83.0311 313.549 83.1256 315.157L78.6188 315.196C78.5794 314.644 78.3745 314.211 77.9963 313.896C77.6181 313.581 77.1375 313.431 76.5544 313.431C76.0501 313.431 75.6483 313.573 75.341 313.841C75.0337 314.109 74.884 314.503 74.884 314.999C74.884 315.551 75.1519 315.976 75.6719 316.283C76.192 316.591 77.0114 316.914 78.1145 317.26C79.2254 317.623 80.1237 317.977 80.817 318.308C81.5104 318.647 82.1092 319.136 82.6214 319.782C83.1335 320.428 83.3856 321.263 83.4014 322.287C83.4014 323.264 83.165 324.147 82.6765 324.95C82.188 325.754 81.471 326.392 80.5413 326.865C79.6036 327.346 78.4927 327.59 77.2084 327.598C75.9556 327.606 74.8368 327.417 73.844 327.015H73.8361Z" fill="white"/>
<path d="M88.5859 326.675C87.5143 326.116 86.6713 325.312 86.0567 324.264C85.4421 323.216 85.1269 321.979 85.1112 320.569C85.1033 319.174 85.3948 317.937 86.0094 316.874C86.6161 315.802 87.4513 314.983 88.5229 314.408C89.5865 313.832 90.7921 313.533 92.1236 313.525C93.4552 313.517 94.6607 313.785 95.7402 314.345C96.8196 314.904 97.6706 315.715 98.293 316.771C98.9155 317.827 99.2385 319.056 99.2464 320.451C99.2543 321.845 98.9549 323.083 98.3403 324.146C97.7257 325.218 96.8748 326.037 95.8032 326.612C94.7317 327.188 93.5261 327.487 92.1946 327.495C90.863 327.503 89.6653 327.235 88.5938 326.675H88.5859ZM94.1801 323.004C94.7317 322.413 95.0074 321.578 94.9995 320.49C94.9917 319.403 94.708 318.568 94.1643 317.985C93.6128 317.402 92.9431 317.118 92.1473 317.126C91.3357 317.126 90.666 317.425 90.1302 318.008C89.6023 318.591 89.3423 319.434 89.3502 320.538C89.3581 321.625 89.6259 322.46 90.1617 323.043C90.6975 323.626 91.3594 323.91 92.1552 323.902C92.951 323.902 93.6286 323.595 94.1801 323.012V323.004Z" fill="white"/>
<path d="M114.816 313.517L114.934 327.109L110.766 327.14L110.75 325.289C110.332 325.895 109.765 326.384 109.048 326.754C108.331 327.124 107.527 327.314 106.653 327.321C105.613 327.329 104.691 327.109 103.895 326.652C103.099 326.195 102.477 325.533 102.028 324.658C101.579 323.784 101.35 322.759 101.342 321.57L101.279 313.627L105.424 313.596L105.487 320.979C105.487 321.885 105.739 322.594 106.212 323.09C106.684 323.587 107.323 323.839 108.118 323.831C108.93 323.831 109.568 323.571 110.033 323.059C110.498 322.555 110.726 321.845 110.718 320.931L110.655 313.549L114.824 313.517H114.816Z" fill="white"/>
<path d="M123.814 313.943C124.539 313.51 125.35 313.281 126.24 313.273L126.28 317.686H125.137C124.097 317.702 123.317 317.93 122.805 318.387C122.293 318.836 122.033 319.624 122.049 320.743L122.104 327.054L117.936 327.086L117.818 313.494L121.986 313.463L122.009 315.724C122.49 314.975 123.097 314.377 123.822 313.943H123.814Z" fill="white"/>
<path d="M128.305 316.495C128.872 315.44 129.668 314.62 130.692 314.037C131.716 313.462 132.898 313.163 134.23 313.155C135.932 313.139 137.366 313.572 138.516 314.463C139.667 315.345 140.431 316.598 140.801 318.221L136.365 318.26C135.979 317.228 135.254 316.708 134.183 316.716C133.418 316.716 132.812 317.023 132.363 317.622C131.913 318.221 131.693 319.072 131.701 320.175C131.709 321.278 131.945 322.129 132.402 322.712C132.859 323.303 133.474 323.595 134.238 323.587C135.309 323.579 136.026 323.051 136.397 322.011L140.833 321.972C140.486 323.563 139.745 324.824 138.595 325.738C137.453 326.66 136.034 327.124 134.34 327.14C133.009 327.148 131.827 326.88 130.787 326.321C129.755 325.761 128.943 324.958 128.352 323.902C127.769 322.854 127.47 321.617 127.454 320.207C127.446 318.796 127.722 317.559 128.289 316.495H128.305Z" fill="white"/>
<path d="M155.779 320.971L146.356 321.049C146.427 321.892 146.703 322.539 147.191 322.98C147.672 323.421 148.263 323.642 148.964 323.634C150.004 323.626 150.721 323.177 151.123 322.302L155.559 322.263C155.338 323.153 154.936 323.965 154.345 324.682C153.755 325.399 153.022 325.966 152.131 326.384C151.241 326.801 150.248 327.006 149.137 327.014C147.806 327.022 146.616 326.754 145.576 326.195C144.536 325.635 143.716 324.831 143.118 323.783C142.527 322.736 142.219 321.499 142.212 320.088C142.204 318.678 142.479 317.441 143.047 316.377C143.614 315.313 144.418 314.494 145.45 313.919C146.482 313.344 147.672 313.052 149.027 313.036C150.343 313.028 151.517 313.288 152.541 313.832C153.565 314.376 154.377 315.156 154.96 316.172C155.543 317.189 155.842 318.378 155.858 319.749C155.858 320.135 155.842 320.545 155.795 320.971H155.779ZM151.572 318.694C151.572 317.977 151.32 317.417 150.823 316.992C150.327 316.566 149.72 316.369 148.988 316.369C148.286 316.369 147.703 316.582 147.231 316.992C146.758 317.401 146.466 317.977 146.356 318.725L151.572 318.678V318.694Z" fill="white"/>
</svg>
