<?xml version="1.0" encoding="UTF-8"?>
<svg id="Layer_1" xmlns="http://www.w3.org/2000/svg" version="1.1" viewBox="0 0 1326.6 756.9">
  <!-- Generator: Adobe Illustrator 30.2.1, SVG Export Plug-In . SVG Version: 2.1.1 Build 1)  -->
  <defs>
    <style>
      .st0 {
        fill: #9d0054;
      }

      .st1 {
        fill: #fff;
      }

      .st2 {
        fill: #092b4d;
      }
    </style>
  </defs>
  <g>
    <polygon class="st1" points="857.8 254.6 878.4 156.2 273.9 156.2 174.7 629.6 680.1 629.6 652.3 756.6 1136.5 756.6 1243.2 254.6 857.8 254.6"/>
    <path class="st2" d="M380.7,569.2c-13.7,0-26.7-2.3-38.8-6.7-12.2-4.5-22.8-11.1-31.9-19.8-9.1-8.8-16.2-19.6-21.5-32.3-5.3-12.8-7.9-27.5-7.9-44.1s3.1-43.4,9.4-62c6.3-18.7,15.1-34.6,26.4-48,11.3-13.3,24.8-23.7,40.6-30.9,15.7-7.3,33-11,51.7-11s24.6,2.2,36,6.7c11.4,4.4,21.3,10.8,29.8,19.3,8.5,8.4,15.3,18.8,20.4,31.2,5.1,12.3,7.5,26.5,7.5,42.5s0,5.3-.2,8.6c-.1,3.3-.4,6.7-.7,10s-.6,6.8-.9,10c-.3,3.3-.7,6.1-1.2,8.3h-177.5c-.1,2.1-.3,4.2-.4,6.2,0,2-.1,4-.1,6.2,0,12.7,1.8,23.4,5.5,32.3,3.7,8.9,8.4,16.2,14.3,21.8,5.9,5.6,12.5,9.7,19.8,12.2s14.7,3.7,22.1,3.7c16.3,0,29.4-2.9,39.3-8.4,9.9-5.6,17.4-13.3,22.6-22.8h41.8c-2.6,9.4-6.9,18.3-12.8,26.5-5.9,8.2-13.4,15.4-22.5,21.4-9.1,6-19.6,10.8-31.5,14.1-11.9,3.3-25.1,5.1-39.4,5.1ZM460.9,419.1c.1-.7.3-2.2.4-4.2s.1-4.1.1-6.1c0-8.1-1.2-15.7-3.5-22.9-2.3-7.3-5.9-13.6-10.6-19-4.7-5.5-10.6-9.8-17.6-13-7-3.2-15.2-4.8-24.5-4.8s-18.3,1.7-26.5,5.1c-8.2,3.4-15.7,8.1-22.4,14.3-6.7,6.2-12.5,13.5-17.4,22.1-4.8,8.6-8.8,18.2-11.6,28.6h133.6Z"/>
    <path class="st2" d="M614.6,569.2c-12.3,0-23.9-2.3-34.7-7-10.8-4.6-20.3-11.3-28.4-20-8.1-8.6-14.6-19.2-19.3-31.5-4.7-12.3-7.1-26.1-7.1-41.3s1.5-28.9,4.5-42.3c3-13.5,7.2-25.9,12.7-37.4,5.5-11.5,12.1-21.9,19.8-31.2,7.7-9.3,16.2-17.2,25.6-23.7,9.4-6.5,19.5-11.6,30.4-15.1,10.9-3.5,22.3-5.3,34.1-5.3s17.2,1.2,25.3,3.7c8,2.4,15.2,5.8,21.7,10.2,6.4,4.4,12,9.6,16.7,15.7,4.6,6.2,8.1,12.9,10.2,20.2h3.7l30.4-143.3h40l-73.1,344h-37.9l7.1-33.5h-3.7c-9,11.7-20.3,20.9-33.8,27.8-13.6,6.6-28.2,10-43.9,10ZM627.1,533.8c12.8,0,24.6-3,35.5-9s20.4-14.2,28.4-24.7c8.1-10.4,14.4-22.7,19-36.8,4.5-14.1,6.9-29.3,6.9-45.6s-1.5-19.9-4.3-28.3c-2.9-8.3-7-15.5-12.3-21.4-5.3-5.9-11.8-10.4-19.4-13.6-7.6-3.2-16.2-4.8-25.9-4.8s-24.4,2.9-35.2,8.4c-10.8,5.6-20.1,13.5-28.1,23.5-7.9,10-14.1,22-18.7,36-4.5,13.9-6.9,29.2-6.9,45.8s1.5,19.8,4.5,28.6c3,8.6,7.1,16.1,12.5,22.3,5.3,6.2,11.7,11,19.2,14.4,7.5,3.5,15.7,5.2,24.9,5.2Z"/>
    <polygon class="st2" points="1158.3 319.3 1069.1 319.3 971.9 439.7 967.1 439.7 915.6 319.3 825.5 319.3 902.8 494.2 735.9 691.9 823.9 691.9 931 564.9 938.2 564.9 996.1 691.9 1084.5 691.9 999 502.9 1158.3 319.3"/>
  </g>
  <polygon class="st0" points="53.5 .2 .3 254.1 696.8 254.1 752.5 .2 53.5 .2"/>
  <g>
    <path class="st1" d="M143.4,212.9c-42.9,0-69.4-32.2-60.7-84.9,8.6-51.3,43.9-82,85.5-82s69.1,32.3,60.3,85c-8.6,51.3-43.8,81.9-85.1,81.9ZM167.2,68.4c-28.8,0-54.1,22.3-60.6,62.7-6.6,38.9,10.5,59.5,37.6,59.5s53.9-22.2,60.5-62.5c6.5-39-10.3-59.7-37.5-59.7Z"/>
    <path class="st1" d="M270.4,48.2h57.9c37.6,0,52.4,22.6,47.5,52.6-5,29.9-27.4,52.7-65,52.7h-33.3l-9.5,57.1h-24.5l27-162.4ZM311.9,132.8c23.9,0,36.3-13.6,39.2-32,3-18.5-4.6-31.6-28.8-31.6h-30.8l-10.5,63.5h30.9Z"/>
    <path class="st1" d="M410.6,48.2h108.8l-3.5,21.1h-84.3l-8.3,49.5h72l-3.5,21h-72l-8.3,49.7h78.3l-3.5,21.1h-102.7l27-162.4Z"/>
    <path class="st1" d="M647,210.6h-22.6l-53.8-119.2h-1.5l-28.9,119.2h-24.5l35.9-162.4h22.7l56.8,119.3h1.5l25.9-119.3h24.2l-35.8,162.4Z"/>
  </g>
  <path class="st2" d="M1294.7,317.1c-4.4,0-8.5-.8-12.3-2.4-3.8-1.6-7.2-3.9-10-6.8-2.9-2.9-5.1-6.2-6.8-10-1.6-3.8-2.4-7.9-2.4-12.3s.8-8.5,2.4-12.3,3.9-7.2,6.8-10c2.9-2.9,6.2-5.1,10-6.8,3.8-1.6,7.9-2.4,12.3-2.4s8.5.8,12.3,2.4c3.8,1.6,7.2,3.9,10,6.8,2.9,2.9,5.1,6.2,6.8,10,1.6,3.8,2.4,7.9,2.4,12.3s-.8,8.5-2.4,12.3-3.9,7.2-6.8,10c-2.9,2.9-6.2,5.1-10,6.8-3.8,1.6-7.9,2.4-12.3,2.4ZM1294.7,311.3c4.8,0,9.1-1.2,13-3.4,3.9-2.3,7-5.4,9.3-9.3,2.3-3.9,3.4-8.2,3.4-13s-1.2-9.1-3.4-13c-2.3-3.9-5.4-7-9.3-9.3s-8.2-3.4-13-3.4-9.1,1.2-13,3.4c-3.9,2.3-7,5.4-9.3,9.3s-3.4,8.2-3.4,13,1.2,9.1,3.4,13c2.3,3.9,5.4,7,9.3,9.3,4,2.3,8.2,3.4,13,3.4ZM1284,299.8v-29.1h14c1.5,0,2.9.4,4.2,1,1.4.7,2.6,1.8,3.4,3.1.9,1.4,1.4,3,1.4,5s-.4,3.7-1.4,5.1-2.1,2.6-3.6,3.3c-1.5.7-2.9,1.2-4.5,1.2h-10.8v-4h9.4c1.3,0,2.6-.5,3.6-1.5,1.1-1,1.6-2.3,1.6-4.1s-.5-3.1-1.6-4-2.2-1.2-3.5-1.2h-7.3v25.1s-5,0-5,0ZM1301,286.2l7.3,13.5h-5.7l-7.1-13.5h5.6Z"/>
</svg>